<?xml version="1.0" standalone="no"?>
<!DOCTYPE svg PUBLIC "-//W3C//DTD SVG 1.1//EN" "http://www.w3.org/Graphics/SVG/1.1/DTD/svg11.dtd" >
<svg xmlns="http://www.w3.org/2000/svg">
<metadata></metadata>
<defs>
<font id="rooneymedium_italic" horiz-adv-x="1085" >
<font-face units-per-em="2048" ascent="1536" descent="-512" />
<missing-glyph horiz-adv-x="524" />
<glyph horiz-adv-x="0" />
<glyph horiz-adv-x="0" />
<glyph horiz-adv-x="682" />
<glyph unicode="&#xd;" horiz-adv-x="0" />
<glyph unicode=" "  horiz-adv-x="524" />
<glyph unicode="&#x09;" horiz-adv-x="524" />
<glyph unicode="&#xa0;" horiz-adv-x="524" />
<glyph unicode="!" horiz-adv-x="673" d="M121 121q0 68 45.5 114t112.5 46q63 0 103 -40t40 -102q0 -69 -46 -114t-114 -45q-63 0 -102 39t-39 102zM242 465q0 58 120 928q16 92 132 92q57 0 85.5 -20.5t28.5 -55.5q0 -47 -196 -932q-17 -74 -95 -74q-37 0 -56 16.5t-19 45.5z" />
<glyph unicode="&#x22;" horiz-adv-x="804" d="M240 1001q0 32 14 197t20 213q11 84 115 84q100 0 100 -76q0 -26 -36 -167.5t-66 -241.5q-18 -72 -82 -72q-65 0 -65 63zM590 1001q0 31 14.5 195.5t20.5 214.5q11 84 116 84q99 0 99 -76q0 -51 -101 -409q-21 -72 -84 -72q-65 0 -65 63z" />
<glyph unicode="#" horiz-adv-x="1460" d="M37 416q0 35 24 56.5t60 21.5h209l188 385h-158q-69 0 -69 63q0 35 24 57.5t60 22.5h211l153 315q29 62 90 62q38 0 62 -22.5t24 -55.5q0 -17 -12 -45l-125 -254h291l154 315q29 62 90 62q38 0 62 -22.5t24 -55.5q0 -15 -13 -45l-124 -254h153q70 0 70 -64q0 -35 -24 -57 t-60 -22h-209l-186 -385h153q34 0 52 -16.5t18 -45.5q0 -35 -24 -57.5t-60 -22.5h-209l-152 -313q-29 -62 -90 -62q-38 0 -62 22.5t-24 55.5q0 13 13 43l124 254h-292l-152 -313q-29 -62 -90 -62q-38 0 -62 22.5t-24 55.5q0 15 12 43l123 254h-156q-67 0 -67 64zM522 494 h291l188 385h-290z" />
<glyph unicode="$" horiz-adv-x="1069" d="M85 117.5q-2 22.5 9 99.5q7 37 25 123q14 68 74 68q57 0 63 -68l14 -145q7 -5 21 -11.5t67 -18t117 -11.5q124 0 189 55.5t65 148.5q0 49 -28.5 90.5t-74.5 71.5t-101.5 59.5t-111 62.5t-101.5 72t-74.5 96t-28.5 126q0 152 114.5 255t297.5 122l38 217q12 72 86 72 q32 0 49 -15.5t17 -40.5q0 -18 -4 -43l-31 -186q96 -6 161.5 -25.5t84.5 -42.5q13 -17 15 -39.5t-9 -99.5q-17 -94 -22 -117q-14 -67 -72 -67q-56 0 -64 69l-12 135q-57 33 -188 33q-120 0 -180 -48.5t-60 -129.5q0 -41 22.5 -77t59 -62t83 -53.5t95.5 -51.5t95.5 -57 t83 -69t59 -89t22.5 -116q0 -160 -113.5 -270.5t-301.5 -133.5l-41 -223q-12 -72 -86 -72q-30 0 -48 15.5t-18 40.5q0 3 0.5 8.5t1.5 15.5t2 19l33 190q-106 6 -182 29t-97 49q-13 17 -15 39.5z" />
<glyph unicode="%" horiz-adv-x="1931" d="M164 901q0 92 29.5 179.5t83 157t137 111.5t182.5 42q138 0 217.5 -73.5t79.5 -211.5q0 -92 -29.5 -179t-83 -156t-136 -111t-181.5 -42q-139 0 -219 73t-80 210zM371 924q0 -79 31 -117.5t85 -38.5q90 0 144.5 94t54.5 223q0 77 -32 116.5t-85 39.5q-90 0 -144 -94.5 t-54 -222.5zM442 47q0 26 23 59l950 1260q27 37 66 37q28 0 48.5 -19.5t20.5 -48.5q0 -30 -22 -61l-953 -1258q-26 -39 -65 -39q-28 0 -48 20.5t-20 49.5zM1100 270q0 92 29.5 179.5t83 157t137 111.5t182.5 42q138 0 217.5 -73.5t79.5 -211.5q0 -92 -29.5 -179t-83 -156 t-136 -110.5t-181.5 -41.5q-139 0 -219 72.5t-80 209.5zM1307 293q0 -79 31 -117.5t85 -38.5q90 0 144.5 94t54.5 224q0 77 -32 116t-85 39q-90 0 -144 -94.5t-54 -222.5z" />
<glyph unicode="&#x26;" horiz-adv-x="1673" d="M86 338q0 171 114.5 289.5t338.5 220.5q-29 119 -29 219q0 193 121 310.5t315 117.5q153 0 235.5 -68t82.5 -178q0 -52 -17 -99t-52 -87t-74.5 -73t-101 -67t-113.5 -59.5t-128 -58.5q33 -115 86 -231.5t117 -213t138 -157t141 -60.5q110 0 110 166q0 136 -67 229 t-168 93q-15 0 -36 -3t-32 -3q-26 0 -41.5 16.5t-15.5 42.5q0 50 57 85.5t145 35.5q70 0 129.5 -23.5t100.5 -63t69.5 -92.5t42 -112t13.5 -121q0 -59 -11.5 -114.5t-38.5 -109t-66.5 -93.5t-100.5 -64t-136 -24q-87 0 -162 36.5t-151 106.5q-6 -6 -17 -16t-48 -36 t-78 -45.5t-106 -35.5t-132 -16q-206 0 -320 98.5t-114 257.5zM319 389q0 -115 66 -180.5t180 -65.5q68 0 130 22.5t90 44.5l28 23q-154 202 -238 480q-126 -70 -191 -149t-65 -175zM729 1106q0 -33 4 -74.5t8 -66.5l4 -25q68 32 114 58.5t88 60t62.5 72t20.5 83.5 q0 58 -31 89.5t-90 31.5q-81 0 -130.5 -58.5t-49.5 -170.5z" />
<glyph unicode="'" horiz-adv-x="452" d="M238 1001q0 31 15 194.5t21 215.5q3 38 31.5 61t83.5 23q100 0 100 -76q0 -47 -102 -409q-21 -72 -82 -72q-67 0 -67 63z" />
<glyph unicode="(" horiz-adv-x="651" d="M119 295q0 193 45 385.5t119.5 349t160.5 282t179 214.5q40 37 79 37q28 0 46 -17t18 -43q0 -20 -23 -53q-80 -100 -148.5 -216.5t-130 -264.5t-97 -329t-35.5 -372q0 -335 110 -551q11 -25 11 -39q0 -31 -21 -51t-51 -20q-36 0 -66 33q-40 39 -82 120.5t-78 227.5 t-36 307z" />
<glyph unicode=")" horiz-adv-x="651" d="M-90 -334q0 28 22 55q80 100 147.5 215.5t129.5 263.5t97.5 329.5t35.5 373.5q0 329 -109 549q-10 22 -10 41q0 30 20 50t50 20q36 0 67 -31q29 -29 60.5 -85t63 -138t51.5 -197t20 -238q0 -194 -44.5 -386t-119 -348.5t-161 -281.5t-179.5 -214q-40 -37 -80 -37 q-28 0 -44.5 16.5t-16.5 42.5z" />
<glyph unicode="*" horiz-adv-x="841" d="M201 1006q0 31 15.5 50t51.5 29l160 52l-154 73q-47 23 -47 64q0 37 28 66.5t69 29.5q30 0 49 -22l121 -119q0 158 4 205q6 61 86 61q75 0 75 -59q0 -25 -12 -62l-51 -145l137 98q35 25 55 25q31 0 50.5 -24t19.5 -56q0 -61 -67 -80l-162 -51l155 -76q47 -23 47 -61 q0 -37 -27.5 -68t-68.5 -31q-26 0 -49 23l-121 119q0 -156 -4 -205q-3 -29 -27 -45.5t-61 -16.5q-36 0 -56 16t-20 44q0 14 15 61l51 146l-137 -99q-38 -24 -56 -24q-31 0 -50 24.5t-19 57.5z" />
<glyph unicode="+" d="M121 567q0 45 25.5 71t70.5 26h266l47 270q15 98 103 98q84 0 69 -98l-47 -270h260q74 0 74 -66q0 -44 -26 -70t-72 -26h-264l-47 -271q-15 -98 -103 -98q-41 0 -59.5 25t-9.5 73l47 271h-260q-74 0 -74 65z" />
<glyph unicode="," horiz-adv-x="579" d="M-55 -281q0 19 18 43t44 48t62 75t64 113q-65 42 -65 127q0 69 46 115.5t115 46.5q67 0 106.5 -41.5t39.5 -112.5q0 -62 -32.5 -134.5t-80 -132t-98 -106.5t-90.5 -69q-42 -25 -72 -25q-57 0 -57 53z" />
<glyph unicode="-" horiz-adv-x="925" d="M137 524q0 45 29 74t74 29h481q78 0 78 -68q0 -45 -28.5 -73.5t-74.5 -28.5h-481q-78 0 -78 67z" />
<glyph unicode="." horiz-adv-x="579" d="M70 125q0 69 45.5 115.5t113.5 46.5q66 0 107 -40t41 -106q0 -69 -46.5 -115t-115.5 -46q-66 0 -105.5 39.5t-39.5 105.5z" />
<glyph unicode="/" horiz-adv-x="858" d="M-127 -260q0 29 10 47l879 1661q28 57 88 57q37 0 64 -22.5t28 -57.5q0 -27 -10 -49l-879 -1661q-31 -57 -90 -57q-36 0 -63 23t-27 59z" />
<glyph unicode="0" horiz-adv-x="1253" d="M88 406q0 102 27.5 200.5t83 185t131 153t179 104.5t220.5 38q211 0 328 -113.5t117 -314.5q0 -101 -28 -199.5t-83 -185t-131 -152.5t-178.5 -104t-218.5 -38q-213 0 -330 112.5t-117 313.5zM319 430q0 -141 65 -215t177 -74q109 0 197.5 70.5t136 183.5t47.5 242 q0 141 -65.5 215t-178.5 74q-109 0 -197 -70.5t-135 -183.5t-47 -242z" />
<glyph unicode="1" horiz-adv-x="765" d="M-8 61q0 59 82 78l166 33l122 700l-155 -20q-36 -4 -47 -4q-60 0 -60 59q0 36 35 60q51 35 174.5 73.5t192.5 38.5q56 0 80.5 -31.5t13.5 -89.5l-137 -786l139 -31q37 -9 52.5 -25t15.5 -42q0 -33 -22.5 -53.5t-61.5 -20.5h-523q-67 0 -67 61z" />
<glyph unicode="2" horiz-adv-x="962" d="M0 104q0 41 23 76.5t75 75.5l197 152q169 132 241 215.5t72 167.5q0 61 -41 95t-123 34q-67 0 -139.5 -23t-87.5 -23q-27 0 -43 16.5t-16 43.5q0 34 35 65q44 36 131.5 62t195.5 26q166 0 250 -69t84 -187q0 -129 -101 -244.5t-354 -301.5l-143 -105h381l47 103 q20 40 38 54.5t44 14.5q53 0 53 -57q0 -22 -22 -160q-9 -49 -18 -71.5t-25 -36.5q-30 -27 -86 -27h-551q-57 0 -87 28.5t-30 75.5z" />
<glyph unicode="3" horiz-adv-x="952" d="M-63 -162q0 44 29.5 76.5t70.5 32.5q19 0 36.5 -13t34 -31.5t37 -36.5t54.5 -31t77 -13q128 0 209.5 83t81.5 216q0 99 -77.5 158t-237.5 59q-41 0 -64.5 22.5t-23.5 63.5q0 42 29 63q25 17 94 17q154 0 249 79t95 187q0 70 -46 110t-134 40q-70 0 -144 -24t-88 -24 q-26 0 -41.5 16t-15.5 42q0 41 35 65q43 36 131.5 64t191.5 28q167 0 254.5 -73.5t87.5 -188.5q0 -131 -84.5 -230.5t-204.5 -141.5v-2q95 -19 163.5 -100t68.5 -185q0 -216 -154.5 -357t-400.5 -141q-149 0 -231 48.5t-82 121.5z" />
<glyph unicode="4" horiz-adv-x="1075" d="M-14 188q0 61 61 131l531 639q56 67 103 93t112 26q68 0 98.5 -33.5t19.5 -95.5l-120 -698h122q78 0 78 -74q0 -44 -30.5 -75t-79.5 -31h-121l-37 -215l100 -29q56 -17 56 -64q0 -33 -22.5 -53t-61.5 -20h-418q-70 0 -70 61q0 56 78 74l121 31l37 215h-432 q-62 0 -93.5 31.5t-31.5 86.5zM188 250h387l101 586z" />
<glyph unicode="5" horiz-adv-x="958" d="M-39 -162q0 45 28.5 77t69.5 32q19 0 36.5 -13t34.5 -31.5t37.5 -36.5t54.5 -31t77 -13q131 0 215 84.5t84 220.5q0 246 -395 246q-46 0 -65.5 25t-8.5 67l107 496q21 106 124 106h482q40 0 59 -19t19 -61q0 -49 -30 -81t-75 -32h-422l-67 -305q130 -6 228.5 -38.5 t158 -86t89 -122.5t29.5 -152q0 -218 -153.5 -360t-405.5 -142q-149 0 -230 48.5t-81 121.5z" />
<glyph unicode="6" horiz-adv-x="1118" d="M106 420q0 157 35.5 303.5t105 268.5t164.5 213.5t221.5 142.5t268.5 51q174 0 174 -88q0 -33 -22.5 -54.5t-59.5 -21.5q-14 0 -50.5 4t-65.5 4q-165 0 -294.5 -121.5t-199.5 -347.5q4 4 12 10t36 21.5t58.5 27.5t79.5 21.5t101 9.5q162 0 256 -93.5t94 -252.5 q0 -234 -149 -386t-377 -152q-196 0 -292 119t-96 321zM332 434q0 -142 48.5 -220.5t145.5 -78.5q108 0 183 92t75 252q0 108 -52 163.5t-148 55.5q-61 0 -120.5 -20.5t-88.5 -41.5l-29 -20q-14 -96 -14 -182z" />
<glyph unicode="7" horiz-adv-x="952" d="M96 725q0 9 25 170q14 74 23 101t26 42q37 29 88 29h635q57 0 87 -25t30 -67q0 -51 -62 -133q-104 -143 -157.5 -220t-127.5 -193.5t-113.5 -200.5t-76.5 -191t-55 -215q-12 -73 -48.5 -111.5t-95.5 -38.5q-50 0 -77 31.5t-27 83.5q0 154 166 441t444 649h-491l-62 -144 q-28 -61 -80 -61q-23 0 -37 14t-14 39z" />
<glyph unicode="8" horiz-adv-x="1081" d="M51 287q0 71 28 133.5t80 113.5t106.5 88.5t125.5 75.5q-180 117 -180 293q0 110 58.5 202.5t171 149t257.5 56.5q162 0 256.5 -80t94.5 -197q0 -71 -23.5 -132t-68 -107.5t-90 -80t-107.5 -67.5q213 -125 213 -315q0 -185 -143.5 -312.5t-376.5 -127.5q-193 0 -297.5 87 t-104.5 220zM272 324q0 -85 58.5 -137t161.5 -52q116 0 186 66t70 170q0 75 -52 135t-161 117q-127 -65 -195 -137t-68 -162zM438 1040q0 -74 44 -127t134 -102q99 58 155 121.5t56 150.5q0 71 -47.5 115.5t-126.5 44.5q-96 0 -155.5 -57t-59.5 -146z" />
<glyph unicode="9" horiz-adv-x="1118" d="M33 -244q0 33 22.5 54.5t59.5 21.5q15 0 50 -4t60 -4q186 0 319 127t199 342q-4 -4 -12 -10t-35 -21.5t-57.5 -27.5t-79 -21.5t-100.5 -9.5q-162 0 -257.5 93.5t-95.5 252.5q0 234 150.5 386t378.5 152q131 0 219.5 -57.5t128 -154t39.5 -228.5q0 -198 -57 -375 t-160.5 -311.5t-259.5 -213.5t-342 -79q-170 0 -170 88zM342 588q0 -107 53 -163t150 -56q61 0 119.5 20.5t87.5 40.5l28 21q15 103 15 182q0 141 -48.5 219t-144.5 78q-110 0 -185 -91t-75 -251z" />
<glyph unicode=":" horiz-adv-x="579" d="M70 125q0 69 45.5 115.5t113.5 46.5q66 0 107 -40t41 -106q0 -69 -46.5 -115t-115.5 -46q-66 0 -105.5 39.5t-39.5 105.5zM176 739q0 69 46 115.5t114 46.5q66 0 106.5 -39.5t40.5 -105.5q0 -69 -46 -115.5t-115 -46.5q-66 0 -106 39.5t-40 105.5z" />
<glyph unicode=";" horiz-adv-x="579" d="M-53 -281q0 19 18 43t44 48t62 75t64 113q-65 42 -65 127q0 69 46 115.5t115 46.5q67 0 106.5 -41.5t39.5 -112.5q0 -62 -32.5 -134.5t-80 -132t-98 -106.5t-90.5 -69q-42 -25 -72 -25q-57 0 -57 53zM176 739q0 69 46.5 115.5t115.5 46.5q66 0 106.5 -39.5t40.5 -105.5 q0 -69 -46.5 -115.5t-114.5 -46.5q-66 0 -107 39.5t-41 105.5z" />
<glyph unicode="&#x3c;" d="M184 571q0 61 74 105l559 336q25 14 53 14q31 0 54.5 -25t23.5 -55q0 -49 -45 -76l-485 -292l358 -273q43 -32 43 -76q0 -35 -26.5 -61.5t-65.5 -26.5q-32 0 -65 23l-437 325q-41 33 -41 82z" />
<glyph unicode="=" d="M106 375q0 44 26.5 70t70.5 26h659q74 0 74 -65q0 -46 -26.5 -72.5t-73.5 -26.5h-656q-74 0 -74 68zM172 760q0 44 26 70t70 26h660q73 0 73 -65q0 -46 -26 -71.5t-72 -25.5h-657q-74 0 -74 66z" />
<glyph unicode="&#x3e;" d="M160 223q0 49 45 76l485 291l-358 272q-43 37 -43 78q0 35 27 61.5t67 26.5q31 0 63 -22l439 -328q41 -35 41 -82q0 -56 -76 -104l-559 -334q-25 -17 -51 -17q-33 0 -56.5 25t-23.5 57z" />
<glyph unicode="?" horiz-adv-x="790" d="M139 121q0 68 45.5 114t112.5 46q63 0 103 -40t40 -102q0 -69 -45.5 -114t-113.5 -45q-63 0 -102.5 39t-39.5 102zM199 1350q0 36 34 63q39 34 115 58t176 24q162 0 250 -74.5t88 -195.5q0 -72 -23 -134t-59.5 -106.5t-81 -85t-89 -77.5t-81 -75.5t-59.5 -88t-23 -105.5 q0 -12 1.5 -33t1.5 -31q0 -42 -30 -64t-81 -22q-54 0 -84.5 33.5t-30.5 98.5q0 66 22 123.5t57 99.5t77.5 80t85 74.5t77.5 74t57 86t22 103.5q0 71 -41 111t-127 40q-61 0 -120.5 -18.5t-74.5 -18.5q-27 0 -43 17t-16 43z" />
<glyph unicode="@" horiz-adv-x="2062" d="M119 356q0 200 56.5 377.5t162 316t249 239t324 153.5t381.5 53q341 0 521 -159.5t180 -436.5q0 -167 -45.5 -312t-123 -245t-180.5 -157.5t-217 -57.5q-93 0 -148 35.5t-69 99.5l-4 2q-4 -6 -12 -15t-35 -32.5t-58 -41.5t-80 -33t-101 -15q-132 0 -212.5 81.5 t-80.5 221.5q0 172 77 310.5t211 216t297 77.5q92 0 159 -18t99 -45q38 -38 25 -107l-90 -438q-18 -87 0 -122.5t70 -35.5q124 0 218.5 162t94.5 424q0 229 -137.5 354t-405.5 125q-190 0 -356.5 -67.5t-289.5 -188t-194 -299t-71 -389.5q0 -275 148.5 -421t430.5 -146 q87 0 163 12t117.5 27t78 27t53.5 12q23 0 37 -15t14 -37q0 -34 -30 -61q-49 -41 -180 -80t-302 -39q-360 0 -552.5 181.5t-192.5 506.5zM850 467q0 -89 39 -133.5t108 -44.5q34 0 67.5 10t56 24.5t40.5 29t27 24.5l8 10l94 477q-34 23 -116 23q-128 0 -226 -116.5 t-98 -303.5z" />
<glyph unicode="A" horiz-adv-x="1421" d="M-55 61q0 28 18.5 47.5t61.5 36.5l63 23l580 1081q42 80 85 110t109 30q68 0 101.5 -30t48.5 -110l202 -1081l60 -23q35 -13 49 -29.5t14 -41.5q0 -33 -22.5 -53.5t-61.5 -20.5h-360q-68 0 -68 61q0 28 17.5 46.5t58.5 33.5l84 25l-39 223h-532l-117 -223l68 -23 q39 -14 54 -28.5t15 -40.5q0 -33 -22.5 -53.5t-61.5 -20.5h-336q-69 0 -69 61zM489 539h431l-72 417l-31 220h-4q-49 -107 -106 -220z" />
<glyph unicode="B" horiz-adv-x="1245" d="M-14 61q0 59 75 78l109 29l180 1042l-86 23q-74 22 -74 74q0 31 21 51t55 20h496q221 0 328.5 -81t107.5 -216q0 -129 -82.5 -222t-210.5 -128v-4q114 -15 177 -85t63 -173q0 -97 -41 -181.5t-119.5 -149t-204 -101.5t-284.5 -37h-441q-69 0 -69 61zM393 158h146 q180 0 272 76.5t92 207.5q0 96 -63 143.5t-213 47.5h-152zM502 782h149q145 0 224 73t79 194q0 85 -55 128.5t-182 43.5h-142z" />
<glyph unicode="C" horiz-adv-x="1206" d="M106 487q0 138 35.5 270.5t107 248t169.5 203t232 138t286 50.5q104 0 174 -18.5t96 -47.5q21 -24 21 -63q0 -18 -15 -125q-19 -98 -28 -139q-14 -64 -74 -64q-59 0 -68 72l-20 192q-33 23 -127 23q-162 0 -288.5 -100.5t-191.5 -259.5t-65 -345q0 -175 93 -269.5 t255 -94.5q75 0 138.5 12t102.5 24.5t54 12.5q24 0 37.5 -13.5t13.5 -37.5q0 -36 -32 -68q-42 -42 -144.5 -74t-236.5 -32q-248 0 -386.5 131t-138.5 374z" />
<glyph unicode="D" horiz-adv-x="1419" d="M-14 61q0 59 75 78l109 29l180 1042l-86 23q-74 22 -74 74q0 31 21 51t55 20h490q311 0 464.5 -131t153.5 -368q0 -406 -244 -642.5t-663 -236.5h-412q-69 0 -69 61zM397 166h117q288 0 452 176.5t164 503.5q0 182 -102 274t-321 92h-129z" />
<glyph unicode="E" horiz-adv-x="1169" d="M-14 61q0 58 75 78l111 29l180 1042l-88 23q-71 22 -71 74q0 31 20 51t55 20h824q90 0 90 -73q0 -15 -13 -117q-11 -66 -18 -101q-15 -65 -76 -65q-30 0 -46.5 17t-22.5 59l-13 119h-413l-76 -443h317l33 70q19 36 37 50.5t45 14.5q55 0 55 -51q0 -9 -2 -20l-47 -279 q-12 -74 -74 -74q-27 0 -42.5 17.5t-22.5 56.5l-8 64h-318l-80 -461h437l59 135q33 70 86 70q59 0 59 -58q0 -30 -22 -151q-11 -61 -20 -87t-25 -40q-27 -31 -92 -31h-824q-69 0 -69 61z" />
<glyph unicode="F" horiz-adv-x="1079" d="M-14 61q0 59 75 78l109 29l180 1042l-86 23q-74 22 -74 74q0 31 21 51t55 20h815q90 0 90 -73q0 -33 -14 -121q-8 -62 -18 -101q-12 -65 -74 -65q-31 0 -48.5 17.5t-23.5 58.5l-14 120h-401l-78 -454h295l34 71q19 37 37.5 52.5t44.5 15.5q30 0 45 -18.5t9 -55.5 l-50 -284q-12 -74 -71 -74q-28 0 -44.5 17.5t-23.5 56.5l-8 65h-295l-76 -436l109 -29q36 -10 51.5 -26t15.5 -41q0 -33 -22.5 -53.5t-61.5 -20.5h-434q-69 0 -69 61z" />
<glyph unicode="G" horiz-adv-x="1357" d="M106 496q0 138 34.5 268t106.5 245.5t175 201.5t249.5 136t319.5 50q120 0 199 -20t108 -50q21 -21 21 -61q0 -27 -14 -123q-5 -28 -10 -51.5t-10.5 -48.5t-8.5 -42q-15 -63 -76 -63t-67 74l-19 184q-45 29 -178 29q-141 0 -254.5 -60t-184 -159.5t-108 -222 t-37.5 -255.5q0 -185 102.5 -283t299.5 -98q55 0 99.5 5.5t61.5 11.5l17 6l59 360l-168 39q-59 16 -59 68q0 32 20 52t54 20h327q72 0 72 -62q0 -11 -2 -24l-74 -414q-9 -52 -26.5 -80.5t-53.5 -52.5q-53 -37 -156 -66.5t-251 -29.5q-272 0 -420 138t-148 378z" />
<glyph unicode="H" horiz-adv-x="1523" d="M-14 61q0 58 75 78l111 29l180 1042l-88 23q-71 22 -71 74q0 31 20 51t55 20h418q70 0 70 -57q0 -31 -20.5 -52.5t-73.5 -35.5l-84 -23l-74 -424h614l76 424l-80 21q-74 23 -74 76q0 31 20.5 51t55.5 20h420q70 0 70 -57q0 -31 -21 -52t-72 -34l-96 -25l-178 -1042 l94 -27q35 -10 50.5 -26t15.5 -41q0 -33 -22.5 -53.5t-61.5 -20.5h-408q-69 0 -69 61q0 56 80 80l94 27l80 457h-615l-80 -457l86 -25q66 -22 66 -69q0 -33 -22.5 -53.5t-61.5 -20.5h-410q-69 0 -69 61z" />
<glyph unicode="I" horiz-adv-x="686" d="M-14 61q0 59 75 78l109 29l180 1042l-86 23q-74 22 -74 74q0 31 21 51t55 20h430q68 0 68 -57q0 -32 -20 -52.5t-72 -33.5l-94 -25l-181 -1042l95 -27q36 -10 50.5 -26t14.5 -41q0 -33 -22.5 -53.5t-61.5 -20.5h-418q-69 0 -69 61z" />
<glyph unicode="J" horiz-adv-x="634" d="M-162 -311q0 48 58 78q46 24 80.5 50t68 67t57.5 101.5t37 139.5l189 1085l-86 25q-70 19 -70 72q0 31 21.5 51t56.5 20h412q67 0 67 -57q0 -31 -18 -51.5t-66 -34.5l-92 -25l-180 -1052q-28 -154 -75 -251t-116 -163q-127 -121 -260 -121q-41 0 -62.5 18t-21.5 48z" />
<glyph unicode="K" horiz-adv-x="1349" d="M-14 61q0 59 75 78l109 29l180 1042l-86 23q-74 22 -74 74q0 31 21 51t55 20h383q70 0 70 -57q0 -31 -18.5 -51.5t-73.5 -42.5l-49 -17l-86 -501l557 508l-39 14q-66 28 -66 76q0 31 20.5 51t55.5 20h383q70 0 70 -57q0 -31 -21 -51.5t-76 -38.5l-67 -19l-578 -507 l141 -201q127 -180 195 -249.5t156 -113.5q41 -21 41 -59q0 -40 -41.5 -67t-112.5 -27q-94 0 -172.5 59.5t-177.5 206.5l-277 412l-86 -498l47 -18q70 -34 70 -76q0 -33 -23 -53.5t-61 -20.5h-375q-69 0 -69 61z" />
<glyph unicode="L" horiz-adv-x="1056" d="M-14 61q0 59 75 78l109 29l180 1042l-86 23q-74 22 -74 74q0 31 21 51t55 20h453q69 0 69 -57q0 -31 -20.5 -51t-69.5 -33l-120 -29l-181 -1042h369l80 180q19 39 37.5 54.5t48.5 15.5q26 0 40.5 -15t14.5 -41q0 -20 -24 -165q-13 -84 -23.5 -116.5t-28.5 -47.5 q-31 -31 -92 -31h-764q-69 0 -69 61z" />
<glyph unicode="M" horiz-adv-x="1875" d="M-37 61q0 28 18.5 47.5t63.5 36.5l61 23l297 1044l-71 21q-72 23 -72 74q0 31 21.5 51t56.5 20h319q43 0 65 -16.5t26 -54.5l116 -873l21 -211h4q37 96 90 211l418 873q35 71 116 71h299q70 0 70 -57q0 -31 -19.5 -51.5t-70.5 -34.5l-78 -23l-61 -1044l59 -23 q35 -13 48.5 -29.5t13.5 -41.5q0 -33 -22.5 -53.5t-61.5 -20.5h-344q-70 0 -70 61q0 29 19 48t67 36l65 23l54 723l26 262h-4l-489 -1022q-39 -82 -77 -111.5t-101 -29.5q-60 0 -88.5 30.5t-40.5 110.5l-138 1024h-4q-30 -137 -63 -264l-195 -723l64 -23q37 -15 52 -30.5 t15 -40.5q0 -33 -22.5 -53.5t-61.5 -20.5h-323q-68 0 -68 61z" />
<glyph unicode="N" horiz-adv-x="1540" d="M-14 61q0 59 75 78l109 29l180 1042l-86 23q-74 22 -74 74q0 31 21 51t55 20h262q46 0 75 -16t48 -59l373 -787q23 -49 46.5 -107.5t35.5 -92.5l12 -33l4 2q13 129 33 260l111 665l-86 23q-74 22 -74 74q0 31 21.5 51t56.5 20h389q67 0 67 -57q0 -31 -19.5 -51.5 t-72.5 -34.5l-90 -25l-188 -1085q-21 -135 -152 -135q-55 0 -88 22t-57 72l-369 778q-23 49 -46 107t-34 91l-12 34l-4 -2q-12 -128 -35 -261l-111 -663l97 -27q65 -19 65 -67q0 -33 -22.5 -53.5t-61.5 -20.5h-385q-69 0 -69 61z" />
<glyph unicode="O" horiz-adv-x="1478" d="M106 496q0 177 56.5 340t158 288t255.5 200t337 75q246 0 383.5 -136.5t137.5 -379.5q0 -141 -35 -274.5t-104.5 -247t-165 -199t-224.5 -134t-276 -48.5q-246 0 -384.5 136.5t-138.5 379.5zM350 528q0 -186 85.5 -283.5t234.5 -97.5q115 0 214 59t165.5 157.5t104.5 225 t38 261.5q0 186 -85.5 283.5t-234.5 97.5q-115 0 -214 -59t-165.5 -157.5t-104.5 -225t-38 -261.5z" />
<glyph unicode="P" horiz-adv-x="1153" d="M-14 61q0 59 75 78l109 29l180 1042l-86 23q-74 22 -74 74q0 31 21 51t55 20h492q212 0 319 -85.5t107 -231.5q0 -235 -165.5 -384t-449.5 -149h-110l-62 -358l109 -29q36 -10 51.5 -26t15.5 -41q0 -33 -22.5 -53.5t-61.5 -20.5h-434q-69 0 -69 61zM487 682h119 q151 0 242.5 93t91.5 249q0 193 -225 193h-137z" />
<glyph unicode="Q" horiz-adv-x="1480" d="M106 496q0 141 35 274.5t105 247t166 199t226 134t277 48.5q244 0 381.5 -136.5t137.5 -379.5q0 -224 -84 -415.5t-232.5 -315.5t-335.5 -158q56 -123 174.5 -185t317.5 -77q53 -3 53 -47q0 -46 -64.5 -80.5t-189.5 -34.5q-183 0 -312.5 101.5t-160.5 308.5 q-226 6 -360 141t-134 375zM348 528q0 -186 86 -283.5t236 -97.5q115 0 214.5 59t166 157t104 224.5t37.5 262.5q0 186 -85.5 283.5t-234.5 97.5q-115 0 -215 -59t-166.5 -157t-104.5 -224.5t-38 -262.5z" />
<glyph unicode="R" horiz-adv-x="1282" d="M0 61q0 59 76 78l108 29l181 1042l-86 23q-74 22 -74 74q0 31 21 51t55 20h514q221 0 328.5 -81.5t107.5 -225.5q0 -89 -34 -168t-89 -133.5t-117 -91t-127 -53.5l60 -160q54 -147 111 -219t126 -107q41 -21 41 -59t-39.5 -65t-109.5 -27q-110 0 -186 78t-136 262 l-86 258h-164l-71 -418l69 -23q34 -13 48 -29.5t14 -41.5q0 -33 -22.5 -53.5t-61.5 -20.5h-387q-70 0 -70 61zM508 737h149q153 0 242.5 78t89.5 223q0 91 -57.5 135t-183.5 44h-158z" />
<glyph unicode="S" d="M66 110q0 32 14 123q9 64 24 127q14 64 76 64q59 0 68 -70l16 -166q7 -5 21 -12.5t67.5 -20t118.5 -12.5q127 0 196.5 59t69.5 154q0 57 -30 103.5t-77.5 80t-105 65.5t-115 67.5t-105 77t-77.5 104t-30 139.5q0 86 33.5 159.5t98.5 128.5t167.5 86.5t232.5 31.5 q127 0 209 -21.5t106 -50.5q18 -21 19 -50v-4q0 -31 -14 -122q-8 -54 -23 -119q-17 -63 -76 -63q-56 0 -65 69l-19 160q-6 4 -17.5 10t-59.5 16.5t-109 10.5q-122 0 -186 -51t-64 -133q0 -54 30 -99t78 -77.5t105.5 -63.5t115.5 -67t106 -78.5t78 -106.5t30 -143 q0 -193 -144 -314.5t-409 -121.5q-137 0 -224 23.5t-112 53.5q-18 21 -18 53z" />
<glyph unicode="T" horiz-adv-x="1169" d="M125 1030q0 34 20 154q14 82 25 115t27 49q30 30 94 30h889q90 0 90 -73q0 -23 -17 -136q-14 -80 -26 -131q-14 -63 -72 -63q-31 0 -47.5 16t-20.5 51l-16 172h-254l-178 -1046l104 -27q38 -10 54 -26t16 -41q0 -33 -22.5 -53.5t-61.5 -20.5h-446q-70 0 -70 61 q0 56 78 78l121 29l180 1046h-252l-76 -170q-19 -39 -36.5 -54t-47.5 -15q-55 0 -55 55z" />
<glyph unicode="U" horiz-adv-x="1419" d="M152 1307q0 31 20 51t55 20h404q67 0 67 -57q0 -31 -19 -51.5t-69 -34.5l-84 -25l-114 -659q-13 -73 -12 -134q0 -272 259 -272q153 0 254.5 98t135.5 296l116 671l-84 21q-75 24 -75 76q0 31 21 51t56 20h373q70 0 70 -57q0 -31 -19.5 -51t-70.5 -37l-74 -23l-115 -663 q-99 -567 -631 -567q-266 0 -374 139q-75 96 -75 260q0 74 15 162l117 669l-72 21q-75 23 -75 76z" />
<glyph unicode="V" horiz-adv-x="1388" d="M147 1307q0 31 20.5 51t55.5 20h369q67 0 67 -57q0 -31 -18.5 -51.5t-71.5 -38.5l-69 -21l127 -786l24 -209h4q42 96 99 209l397 786l-72 23q-65 20 -65 74q0 31 20.5 51t55.5 20h348q67 0 67 -57q0 -31 -19.5 -52.5t-68.5 -39.5l-55 -19l-563 -1081q-42 -80 -84 -109.5 t-109 -29.5t-100.5 30t-46.5 109l-189 1081l-57 21q-66 21 -66 76z" />
<glyph unicode="W" horiz-adv-x="2027" d="M147 1307q0 31 20.5 51t55.5 20h367q67 0 67 -57q0 -31 -18.5 -51.5t-71.5 -38.5l-69 -21l55 -770q4 -50 6 -109.5t2 -93.5v-34h4q41 122 90 237l336 807q31 77 75.5 109.5t111.5 32.5q65 0 99 -32.5t38 -109.5l55 -805l10 -239h4q46 122 93 239l319 768l-72 23 q-65 19 -65 74q0 31 20.5 51t55.5 20h342q69 0 69 -57q0 -31 -19.5 -52.5t-68.5 -39.5l-57 -19l-467 -1081q-32 -78 -79 -108.5t-116 -30.5q-68 0 -105.5 31t-41.5 110l-55 793l-9 231h-4q-41 -127 -84 -231l-331 -793q-32 -78 -80 -109.5t-115 -31.5q-70 0 -106.5 31 t-42.5 110l-95 1079l-57 21q-66 21 -66 76z" />
<glyph unicode="X" horiz-adv-x="1327" d="M-55 61q0 28 17 46.5t58 35.5l72 25l477 532l-276 510l-62 23q-63 23 -63 74q0 31 20.5 51t55.5 20h374q70 0 70 -57q0 -30 -20 -50.5t-74 -41.5l-41 -15l195 -374l307 374l-41 17q-36 15 -53 31t-17 45q0 31 20.5 51t55.5 20h338q69 0 69 -57q0 -30 -18.5 -50t-69.5 -40 l-61 -21l-453 -508l293 -534l64 -23q33 -13 47 -29.5t14 -41.5q0 -33 -22.5 -53.5t-61.5 -20.5h-366q-70 0 -70 61q0 28 17 46t55 34l61 23l-211 399l-330 -399l56 -21q32 -14 46.5 -29.5t14.5 -39.5q0 -33 -23 -53.5t-61 -20.5h-334q-69 0 -69 61z" />
<glyph unicode="Y" horiz-adv-x="1294" d="M147 1307q0 31 21 51t55 20h387q68 0 68 -57q0 -31 -19 -52t-73 -40l-62 -19l187 -465h4l336 465l-54 21q-35 16 -52 33.5t-17 42.5q0 31 20.5 51t55.5 20h344q69 0 69 -57q0 -31 -19 -51.5t-71 -38.5l-57 -21l-500 -649l-65 -393l100 -27q36 -10 51.5 -26t15.5 -41 q0 -33 -22.5 -53.5t-61.5 -20.5h-438q-69 0 -69 61q0 58 79 78l115 29l68 393l-275 649l-49 19q-72 29 -72 78z" />
<glyph unicode="Z" horiz-adv-x="1091" d="M18 111q0 33 14.5 62.5t53.5 76.5l766 967h-444l-74 -162q-20 -39 -37.5 -54.5t-46.5 -15.5q-53 0 -53 57q0 34 20 152q13 76 23.5 107.5t25.5 46.5q30 30 94 30h641q58 0 88.5 -29t30.5 -81q0 -32 -14 -62.5t-51 -77.5l-768 -966h463l77 172q19 40 37.5 56t48.5 16 q26 0 41 -15t15 -43q0 -27 -25 -166q-14 -79 -23 -107.5t-26 -43.5q-27 -31 -92 -31h-664q-59 0 -90 29.5t-31 81.5z" />
<glyph unicode="[" horiz-adv-x="624" d="M27 -293q0 17 2 31l293 1692q18 90 104 90h215q68 0 68 -56q0 -30 -21 -49.5t-70 -32.5l-112 -26l-266 -1551l108 -26q66 -18 66 -66q0 -32 -21.5 -51.5t-60.5 -19.5h-232q-73 0 -73 65z" />
<glyph unicode="\" horiz-adv-x="821" d="M213 1411q0 40 30 65t70 25q32 0 56 -17.5t30 -53.5l303 -1651q3 -18 3 -31q0 -41 -30 -66.5t-69 -25.5q-32 0 -56 18.5t-30 55.5l-305 1650q-2 10 -2 31z" />
<glyph unicode="]" horiz-adv-x="624" d="M-59 -299q0 57 79 76l123 30l267 1549l-119 28q-58 16 -58 66q0 31 20.5 50.5t55.5 19.5h238q76 0 76 -66q0 -3 -1 -7t-2 -11t-2 -11l-292 -1693q-7 -44 -34 -67t-69 -23h-215q-67 0 -67 59z" />
<glyph unicode="^" d="M178 784q0 29 23 58l379 487q29 37 54.5 53.5t57.5 16.5q63 0 99 -70l217 -504q8 -21 8 -41q0 -37 -27.5 -60.5t-62.5 -23.5q-58 0 -82 56l-182 413l-332 -421q-31 -39 -74 -39q-31 0 -54.5 21.5t-23.5 53.5z" />
<glyph unicode="_" d="M-154 -446q0 44 28 72t75 28h889q77 0 77 -66q0 -43 -27.5 -71.5t-72.5 -28.5h-891q-78 0 -78 66z" />
<glyph unicode="`" horiz-adv-x="1003" d="M479 1419q0 42 38.5 76.5t82.5 34.5q45 0 68 -41l129 -242q12 -24 12 -39q0 -29 -22.5 -48t-53.5 -19q-34 0 -53 24l-176 197q-25 28 -25 57z" />
<glyph unicode="a" horiz-adv-x="1179" d="M76 356q0 96 24 190t76.5 182.5t127 156.5t183.5 108.5t238 40.5q82 0 156 -17.5t116 -45.5q32 -23 43 -48q7 -15 7 -36q0 -13 -3 -29l-102 -600q-4 -25 -4 -43q0 -25 8 -37q14 -22 45 -22q18 0 41 7t31 7q45 0 45 -49q0 -53 -62.5 -92t-150.5 -39q-81 0 -124 44 q-40 41 -40 114v10l-4 2q-4 -7 -12.5 -19.5t-38 -43.5t-64 -54.5t-92 -43t-119.5 -19.5q-149 0 -237 98t-88 278zM307 391q0 -120 47.5 -182t122.5 -62q41 0 81.5 15t70 36.5t53 43t35.5 36.5l12 15l94 547q-5 4 -15.5 9.5t-48 15t-81.5 9.5q-93 0 -166 -42.5t-116.5 -113 t-66 -154t-22.5 -173.5z" />
<glyph unicode="b" horiz-adv-x="1142" d="M98 156l197 1149l-92 18q-53 9 -53 53q0 62 77 86q95 25 172 25q67 0 97 -24t30 -74q0 -29 -20 -153t-39 -208q-14 -70 -43 -156l4 -2q4 7 12 17.5t37 38.5t62.5 49.5t88 39t113.5 17.5q149 0 237.5 -98t88.5 -277q0 -96 -24 -190t-76 -182.5t-126 -156t-183.5 -108 t-239.5 -40.5q-82 0 -156.5 17.5t-116.5 45.5q-31 23 -43 47q-7 15 -7 37q0 13 3 29zM319 174q5 -4 15.5 -10t48.5 -15.5t82 -9.5q75 0 137.5 28t105 75.5t72 110t43 130.5t13.5 138q0 121 -47.5 182t-122.5 61q-41 0 -81.5 -14.5t-70 -36t-53 -42.5t-35.5 -35l-12 -15z" />
<glyph unicode="c" horiz-adv-x="909" d="M76 365q0 147 47 273t127 212.5t187 135t225 48.5q113 0 179 -45.5t66 -111.5q0 -50 -29 -79.5t-73 -29.5q-19 0 -38 17t-34.5 37.5t-48 37.5t-74.5 17q-54 0 -106.5 -30.5t-96.5 -86t-71 -145t-27 -197.5q0 -136 62.5 -204.5t167.5 -68.5q61 0 128 24t78 24 q23 0 36.5 -14.5t13.5 -37.5q0 -38 -29 -67q-40 -38 -121 -66t-182 -28q-180 0 -283.5 103t-103.5 282z" />
<glyph unicode="d" horiz-adv-x="1179" d="M76 356q0 96 24 190t76.5 182.5t127 156.5t183.5 108.5t238 40.5q33 0 65 -4t48 -8l16 -4l6 4q3 51 14 119l29 164l-100 18q-55 9 -55 53q0 62 77 86q95 25 181 25q76 -1 106 -33q21 -23 21 -66q0 -18 -3 -38l-188 -1092q-4 -25 -4 -43q0 -25 8 -37q14 -22 45 -22 q18 0 41 7t31 7q45 0 45 -49q0 -53 -62.5 -92t-150.5 -39q-81 0 -124 44q-40 41 -40 114v10l-4 2q-4 -7 -12.5 -19.5t-38 -43.5t-64 -54.5t-92 -43t-119.5 -19.5q-149 0 -237 98t-88 278zM307 391q0 -120 47.5 -182t122.5 -62q41 0 81.5 15t70 36.5t53 43t35.5 36.5l12 15 l94 547q-5 4 -15.5 9.5t-48 15t-81.5 9.5q-93 0 -166 -42.5t-116.5 -113t-66 -154t-22.5 -173.5z" />
<glyph unicode="e" horiz-adv-x="1017" d="M76 365q0 148 46.5 274t126.5 212t189 134.5t232 48.5q145 0 224 -70.5t79 -181.5q0 -176 -175 -274q-149 -83 -399 -83q-44 0 -90 3v-19q0 -266 244 -266q63 0 114 11.5t83.5 23.5t50.5 12q24 0 37.5 -13.5t13.5 -37.5q0 -38 -33 -67q-38 -37 -127 -64.5t-207 -27.5 q-195 0 -302 102.5t-107 282.5zM326 569q36 -2 68 -2q345 0 345 193q0 53 -32 83.5t-93 30.5q-95 0 -177 -84.5t-111 -220.5z" />
<glyph unicode="f" horiz-adv-x="686" d="M-315 -342q0 49 29.5 76.5t72.5 27.5q18 0 34.5 -14.5t28.5 -31.5t35 -31.5t52 -14.5q52 0 90 50t55 153l170 985h-86q-74 0 -74 64q0 41 27.5 66.5t73.5 25.5h86l14 71q33 200 143 305t277 105q98 0 152.5 -41t54.5 -100q0 -47 -30.5 -76t-72.5 -29q-16 0 -29 9.5 t-24 23.5t-23.5 28t-31.5 23.5t-43 9.5q-50 0 -89 -50t-57 -154l-20 -125h151q74 0 74 -66q0 -41 -27 -65.5t-75 -24.5h-150l-156 -893q-40 -229 -150.5 -337.5t-275.5 -108.5q-98 0 -152 40.5t-54 98.5z" />
<glyph unicode="g" horiz-adv-x="1138" d="M27 -330q0 47 29.5 78t78.5 31q19 0 40 -18.5t39.5 -40t55.5 -40t84 -18.5q264 0 324 322q10 68 41 155l-4 2q-4 -7 -12.5 -17.5t-37.5 -38.5t-62.5 -49t-88 -38.5t-113.5 -17.5q-149 0 -237 98t-88 278q0 96 24 190t76.5 182.5t127 156.5t183.5 108.5t238 40.5 q82 0 156 -17.5t116 -45.5q32 -23 43 -48q7 -15 7 -36q0 -13 -3 -29l-141 -827q-46 -263 -200 -394t-396 -131q-125 0 -202.5 48t-77.5 116zM307 391q0 -120 47.5 -182t122.5 -62q41 0 81.5 15t70 36.5t53 43t35.5 36.5l12 15l94 547q-5 4 -15.5 9.5t-48 15t-81.5 9.5 q-93 0 -166 -42.5t-116.5 -113t-66 -154t-22.5 -173.5z" />
<glyph unicode="h" horiz-adv-x="1202" d="M86 90l209 1215l-92 18q-53 9 -53 53q0 62 77 86q95 25 172 25q67 0 97 -24t30 -74q0 -29 -20 -153t-39 -208q-14 -70 -43 -156l4 -2q4 7 12.5 17.5t38 38.5t64 49.5t91 39t118.5 17.5q137 0 212.5 -76.5t75.5 -218.5q0 -77 -39.5 -280t-39.5 -240q0 -61 51 -61 q18 0 40.5 7t30.5 7q22 0 34.5 -13t12.5 -36q0 -53 -63.5 -92t-155.5 -39q-176 0 -176 166q0 54 36 254.5t36 269.5q0 184 -141 184q-41 0 -81.5 -14.5t-70 -36t-53 -42.5t-35.5 -35l-12 -15l-107 -629q-19 -102 -133 -102q-90 0 -90 75q0 12 2 25z" />
<glyph unicode="i" horiz-adv-x="604" d="M100 915q0 61 78 86q87 23 172 23q77 0 107 -32q21 -23 21 -66q0 -17 -3 -37l-108 -631q-4 -21 -4 -38q0 -64 51 -64q19 0 41 7t32 7q45 0 45 -49q0 -53 -63.5 -92t-157.5 -39q-177 0 -177 162q0 32 7 71l105 621l-92 18q-54 9 -54 53zM283 1298q0 66 44.5 111t110.5 45 q62 0 99.5 -38t37.5 -99q0 -66 -43.5 -111t-109.5 -45q-62 0 -100.5 38t-38.5 99z" />
<glyph unicode="j" horiz-adv-x="563" d="M-258 -346q0 46 28.5 73t71.5 27q22 0 39 -21t35 -42t43 -21q86 0 121 203l166 971l-92 18q-54 9 -54 53q0 61 78 86q87 23 172 23q77 0 107 -32q21 -23 21 -66q0 -17 -3 -37l-164 -940q-37 -219 -136.5 -324.5t-242.5 -105.5q-88 0 -139 39.5t-51 95.5zM283 1298 q0 66 44.5 111t110.5 45q62 0 99.5 -38t37.5 -99q0 -66 -43.5 -111t-109.5 -45q-62 0 -100.5 38t-38.5 99z" />
<glyph unicode="k" horiz-adv-x="1095" d="M86 90l209 1215l-92 18q-53 9 -53 53q0 62 77 86q95 25 172 25q67 0 97 -24t30 -74q0 -29 -20 -153t-39 -208q-14 -70 -43 -156l4 -2q4 7 12.5 17.5t39 38.5t65.5 49.5t94.5 39t124.5 17.5q124 0 194 -62t70 -161q0 -124 -92 -211t-254 -123q64 -129 140 -217t136 -117 q26 -14 38 -28.5t12 -36.5q0 -37 -37.5 -62.5t-104.5 -25.5q-74 0 -132.5 40.5t-123.5 135.5q-128 191 -149 278q-7 25 -7 47q0 23 9 43q17 36 67 43q128 13 196.5 64.5t68.5 126.5q0 45 -30 71.5t-85 26.5q-45 0 -89 -14.5t-74.5 -36t-54.5 -42.5t-36 -35l-12 -15 l-107 -629q-19 -102 -133 -102q-90 0 -90 75q0 12 2 25z" />
<glyph unicode="l" horiz-adv-x="573" d="M102 154q0 26 9 75l184 1076l-92 18q-53 9 -53 53q0 62 77 86q95 25 172 25q67 0 97 -24.5t30 -76.5q0 -15 -4 -43l-188 -1085q-4 -25 -4 -43q0 -25 8 -37q14 -22 45 -22q18 0 41 7t31 7q22 0 34.5 -13t12.5 -36q0 -53 -64.5 -92t-158.5 -39q-174 0 -177 164z" />
<glyph unicode="m" horiz-adv-x="1835" d="M100 915q0 61 78 86q87 23 172 23q60 0 85.5 -20.5t25.5 -61.5q0 -16 -4.5 -37.5t-9.5 -34.5l-5 -14l4 -2q4 7 12 19t38 43t65.5 54.5t95 43t125.5 18.5q104 0 172.5 -47.5t92.5 -130.5q5 7 14 19t41.5 43t69.5 54.5t97.5 43t125.5 18.5q130 0 204 -77t74 -218 q0 -77 -41 -280t-41 -240q0 -61 54 -61q18 0 40.5 7t30.5 7q45 0 45 -49q0 -53 -63 -92t-154 -39q-178 0 -178 164q0 55 37 256t37 270q0 184 -133 184q-38 0 -77.5 -14.5t-68 -36t-51.5 -42.5t-35 -35l-12 -15l-109 -629q-19 -102 -131 -102q-53 0 -75 26q-15 19 -16 48 q0 12 3 26l86 512q9 51 9 92q0 64 -22 104q-38 66 -116 66q-39 0 -79 -14.5t-69 -36t-52.5 -42.5t-35.5 -35l-12 -15l-106 -629q-19 -102 -131 -102q-92 0 -92 75q0 11 2 25l129 754l-92 18q-54 9 -54 53z" />
<glyph unicode="n" horiz-adv-x="1232" d="M100 915q0 61 78 86q87 23 172 23q60 0 85.5 -20.5t25.5 -61.5q0 -16 -4.5 -37.5t-9.5 -34.5l-5 -14l4 -2q4 7 12.5 19t39 43t65.5 54.5t94.5 42.5t124.5 19q138 0 213.5 -76.5t75.5 -218.5q0 -77 -40 -280t-40 -240q0 -61 51 -61q19 0 41.5 7t32.5 7q45 0 45 -49 q0 -53 -63.5 -92t-155.5 -39q-176 0 -176 164q1 53 36.5 254.5t35.5 271.5q0 97 -36 140.5t-106 43.5q-40 0 -80.5 -14.5t-70 -36t-53.5 -42.5t-36 -35l-12 -15l-106 -629q-19 -102 -131 -102q-92 0 -92 75q0 11 2 25l129 754l-92 18q-54 9 -54 53z" />
<glyph unicode="o" horiz-adv-x="1161" d="M76 367q0 143 47.5 268.5t128.5 212t190.5 136.5t229.5 50q196 0 304.5 -104t108.5 -283q0 -143 -48 -268.5t-129 -212t-190.5 -136.5t-230.5 -50q-194 0 -302.5 104t-108.5 283zM307 399q0 -123 59 -190.5t154 -67.5q106 0 183.5 68.5t114 173.5t36.5 231 q0 123 -59 190.5t-156 67.5q-79 0 -143.5 -39.5t-105 -106.5t-62 -151t-21.5 -176z" />
<glyph unicode="p" horiz-adv-x="1173" d="M41 -356l205 1200l-92 18q-54 9 -54 53q0 61 78 86q87 23 172 23q60 0 85.5 -20.5t25.5 -61.5q0 -16 -4.5 -37.5t-9.5 -34.5l-5 -14l4 -2q4 7 12.5 19t38.5 43t64.5 54.5t92 42.5t120.5 19q148 0 237 -98t89 -277q0 -96 -24 -190t-76.5 -182.5t-127 -156t-184 -108 t-239.5 -40.5q-32 0 -64.5 4t-48.5 8l-17 4l-6 -4q-3 -52 -14 -117l-29 -176q52 -12 95 -31q28 -11 40.5 -24.5t12.5 -36.5q0 -66 -80 -74q-106 -16 -193 -16q-107 0 -107 94q0 15 3 33zM350 174q48 -35 146 -35q75 0 137.5 28t104.5 75.5t71.5 110t43 130.5t13.5 138 q0 121 -47.5 182t-122.5 61q-41 0 -81.5 -14.5t-70 -36t-53 -42.5t-35.5 -35l-12 -15z" />
<glyph unicode="q" horiz-adv-x="1138" d="M76 356q0 96 24 190t76.5 182.5t127 156.5t183.5 108.5t238 40.5q82 0 156 -17.5t116 -45.5q32 -23 43 -48q7 -15 7 -36q0 -13 -3 -29l-198 -1159q47 -11 96 -31q51 -20 51 -61q0 -66 -80 -74q-106 -16 -194 -16q-107 0 -107 90q0 57 64 377q9 58 43 155l-4 2 q-4 -7 -12.5 -17.5t-37.5 -38.5t-62.5 -49t-88 -38.5t-113.5 -17.5q-149 0 -237 98t-88 278zM307 391q0 -120 47.5 -182t122.5 -62q41 0 81.5 15t70 36.5t53 43t35.5 36.5l12 15l94 547q-5 4 -15.5 9.5t-48 15t-81.5 9.5q-93 0 -166 -42.5t-116.5 -113t-66 -154 t-22.5 -173.5z" />
<glyph unicode="r" horiz-adv-x="784" d="M100 915q0 61 78 86q87 23 172 23q60 0 85.5 -20.5t25.5 -61.5q0 -19 -7.5 -49.5t-14.5 -50.5l-7 -21l4 -2q56 99 129 159t146 60q50 0 76 -25t26 -69q0 -56 -32.5 -100.5t-71.5 -44.5q-17 0 -42 9t-46 9q-35 0 -80.5 -36.5t-74.5 -72.5l-28 -36l-100 -580 q-19 -102 -131 -102q-92 0 -92 75q0 11 2 25l129 754l-92 18q-54 9 -54 53z" />
<glyph unicode="s" horiz-adv-x="849" d="M35 133q0 45 27 75t71 30q18 0 37.5 -16.5t38 -37t59 -37t94.5 -16.5q84 0 127 36t43 97q0 38 -22.5 69t-58.5 54t-79.5 45t-86.5 48t-79 57t-58.5 78.5t-22.5 105.5q0 131 110.5 222t301.5 91q124 0 196 -43.5t72 -105.5q0 -46 -27.5 -75.5t-70.5 -29.5q-15 0 -30 10.5 t-30.5 26t-35 30.5t-51 25.5t-71.5 10.5q-71 0 -109 -31.5t-38 -83.5q0 -41 30.5 -75t76 -56.5t98.5 -52.5t98.5 -62t76 -86.5t30.5 -124.5q0 -139 -119 -235t-324 -96q-129 0 -201.5 45t-72.5 108z" />
<glyph unicode="t" horiz-adv-x="704" d="M92 922q0 41 27.5 66.5t75.5 25.5h77l52 145q26 70 57.5 98.5t79.5 28.5q64 0 64 -57q0 -12 -3 -27l-30 -188h180q73 0 73 -66q0 -41 -27 -65.5t-75 -24.5h-178l-94 -545q-7 -40 -6 -69q0 -38 10 -56q19 -34 78 -34q31 0 67 9t47 9q45 0 45 -47q0 -50 -66 -93.5 t-186 -43.5q-140 0 -190 80q-34 54 -33 134q0 40 8 87l99 569h-78q-74 0 -74 64z" />
<glyph unicode="u" horiz-adv-x="1230" d="M96 915q0 61 78 86q87 23 172 23q77 0 107 -32q21 -23 21 -66q0 -17 -3 -37q-11 -64 -37.5 -202.5t-37.5 -216t-11 -136.5q0 -187 143 -187q40 0 80.5 15t70 36.5t53.5 43t36 36.5l12 15l107 627q19 102 131 102q92 0 92 -74q0 -11 -2 -24l-115 -666q-4 -21 -4 -38 q0 -64 51 -64q19 0 41.5 7t32.5 7q45 0 45 -49q0 -53 -62.5 -92t-150.5 -39q-83 0 -126 44q-39 39 -39 108q0 8 1 16l-4 2q-4 -7 -12.5 -19.5t-39 -43.5t-65.5 -54.5t-94.5 -43t-124.5 -19.5q-138 0 -213 77t-75 219q0 34 4.5 79.5t9.5 83t16 101.5t17.5 96.5t21 108 t19.5 99.5l-92 18q-54 9 -54 53z" />
<glyph unicode="v" horiz-adv-x="1105" d="M41 920q0 55 76 79q80 25 145 25q54 0 80.5 -22.5t38.5 -73.5q99 -419 137 -731h4q314 376 314 585q0 42 -18.5 61t-61.5 19q-62 0 -62 62q0 40 48.5 69t127.5 29q93 0 143 -50.5t50 -140.5q0 -263 -442 -745q-51 -54 -88.5 -75t-81.5 -21q-58 0 -86 29.5t-41 109.5 q-70 397 -156 715l-74 16q-53 12 -53 60z" />
<glyph unicode="w" horiz-adv-x="1648" d="M41 920q0 55 76 79q80 25 145 25q54 0 81 -22.5t38 -73.5q82 -372 123 -729h4q58 76 131 188t117 186l43 74l-47 197l-70 16q-55 12 -55 60q0 55 75 79q80 25 138 25q53 0 79 -22.5t37 -73.5q84 -380 121 -733h4q297 379 297 587q0 42 -18.5 61t-61.5 19q-61 0 -61 62 q0 40 49 69t129 29q92 0 141.5 -50.5t49.5 -140.5q0 -260 -426 -745q-49 -54 -86 -75t-82 -21q-56 0 -83.5 29.5t-39.5 109.5q-8 61 -20.5 139.5t-21.5 127.5l-9 48q-99 -182 -236 -354q-46 -57 -83.5 -78.5t-84.5 -21.5q-58 0 -86.5 30t-38.5 109q-61 408 -141 715l-74 16 q-53 12 -53 60z" />
<glyph unicode="x" horiz-adv-x="1110" d="M-10 119q0 41 22 68.5t51 27.5q15 0 40.5 -14.5t46.5 -14.5q36 0 93 64t189 268l-160 326l-100 18q-53 10 -53 58q0 29 17.5 47.5t60.5 33.5q82 23 153 23q44 0 70 -19t49 -63l145 -299q58 116 114 195.5t104.5 117.5t86.5 53t78 15q69 0 108.5 -35t39.5 -94 q0 -42 -23 -69t-51 -27q-16 0 -41 13t-45 13q-40 0 -105.5 -67t-189.5 -262l121 -246q18 -35 37.5 -56.5t38.5 -28t33 -7t31 2.5t22 3q45 0 45 -51q0 -46 -49.5 -84.5t-132.5 -38.5q-72 0 -123.5 34t-89.5 111l-117 238q-46 -95 -90.5 -166t-81.5 -111.5t-74.5 -65 t-65.5 -32.5t-59 -8q-68 0 -106.5 35t-38.5 94z" />
<glyph unicode="y" horiz-adv-x="1124" d="M-180 -365q0 44 25.5 71.5t62.5 27.5q20 0 56 -11.5t67 -11.5q169 0 336 183q-103 594 -199 950l-74 16q-53 12 -53 60q0 55 76 79q80 25 145 25q54 0 80.5 -22.5t38.5 -73.5q105 -443 160 -842h4q291 383 291 680q0 53 -18.5 74.5t-61.5 21.5q-62 0 -62 62q0 40 48.5 69 t127.5 29q92 0 142.5 -53.5t50.5 -153.5q0 -191 -139 -446.5t-404 -538.5q-288 -311 -545 -311q-78 0 -116.5 31.5t-38.5 84.5z" />
<glyph unicode="z" horiz-adv-x="935" d="M16 84q0 44 33 80l586 665l-4 5q-54 -11 -88 -11q-9 0 -17 1q-36 4 -93 16t-93 12q-34 0 -59.5 -13t-44 -25.5t-37.5 -12.5q-27 0 -43.5 16.5t-16.5 44.5q0 62 66.5 117t175.5 55q64 0 165 -24.5t140 -24.5t80.5 15.5t67.5 15.5q38 0 59.5 -24.5t21.5 -61.5 q0 -45 -32 -80l-586 -668l4 -4q32 12 75 12h6q46 -1 79 -8t80 -14.5t84 -7.5q40 0 67.5 17t46.5 33.5t37 16.5q25 0 41.5 -17t16.5 -44q0 -66 -66.5 -126t-179.5 -60q-72 0 -184 24.5t-150 24.5q-43 0 -86.5 -15.5t-69.5 -15.5q-39 0 -60.5 24t-21.5 62z" />
<glyph unicode="{" horiz-adv-x="712" d="M72 584q0 69 69 90q50 14 80.5 38.5t56.5 83.5t44 160l36 205q34 193 120 280t218 87h4q53 0 80 -20t27 -52q0 -72 -88 -72h-10q-57 0 -87.5 -39t-48.5 -149l-36 -197q-22 -127 -57.5 -211.5t-76.5 -127t-98 -68.5v-2q35 -20 58 -47t38 -70.5t14.5 -111t-16.5 -158.5 l-41 -242q-18 -115 -1.5 -149.5t79.5 -34.5h13q67 0 67 -56q0 -36 -36.5 -61t-106.5 -25h-4q-130 0 -186.5 92t-22.5 289l41 248q19 86 11 139.5t-29.5 77.5t-65.5 37q-45 12 -45 66z" />
<glyph unicode="|" horiz-adv-x="628" d="M63 -412q0 7 5 47l307 1772q8 40 35 64t65 24q40 0 64 -21.5t24 -58.5q0 -23 -6 -47l-305 -1771q-8 -40 -35.5 -64.5t-66.5 -24.5q-40 0 -63.5 21.5t-23.5 58.5z" />
<glyph unicode="}" horiz-adv-x="710" d="M-72 -293q0 70 88 70h11q56 0 86.5 40t48.5 150l39 221q22 128 58 213t76 126.5t97 68.5l2 2q-36 20 -58.5 46t-38.5 72t-14 110.5t15 160.5l39 213q16 76 9.5 117t-25.5 54t-62 13h-12q-68 0 -68 56q0 37 36.5 62.5t104.5 25.5h7q271 0 208 -381l-38 -223 q-17 -86 -9.5 -139t29.5 -77.5t66 -37.5q45 -12 45 -66q0 -68 -70 -90q-50 -13 -81 -38.5t-56 -84t-43 -160.5l-41 -229q-34 -193 -120 -280t-218 -87h-6q-52 0 -78.5 20t-26.5 52z" />
<glyph unicode="~" d="M106 508q0 22 15 49q48 79 128 127.5t167 48.5q54 0 100.5 -21.5t73.5 -47t64 -47t73 -21.5q80 0 156 100q20 29 53 29q30 0 47.5 -18t17.5 -48q0 -27 -14 -49q-46 -79 -126.5 -127.5t-168.5 -48.5q-44 0 -82 14t-64.5 33.5t-51.5 39.5t-53.5 34t-59.5 14q-79 0 -156 -98 q-22 -31 -53 -31q-30 0 -48 19t-18 49z" />
<glyph unicode="&#xa1;" horiz-adv-x="618" d="M43 -344q0 31 82 412.5t115 521.5q14 74 94 74q37 0 56.5 -17t19.5 -47q0 -31 -51.5 -417t-71.5 -511q-13 -90 -131 -90q-55 0 -84 20t-29 54zM231 928q0 67 46 113t114 46q63 0 102 -39.5t39 -101.5q0 -68 -45 -114t-112 -46q-63 0 -103.5 39.5t-40.5 102.5z" />
<glyph unicode="&#xa2;" horiz-adv-x="989" d="M88 500q0 226 142.5 396t361.5 204l39 227q15 72 88 72q29 0 46 -15t17 -41q0 -23 -4 -43l-30 -190q83 -1 136.5 -17t69.5 -38q14 -17 16.5 -40.5t-7.5 -103.5q-5 -34 -21 -108q-16 -66 -74 -66q-55 0 -63 68l-12 131q-25 16 -105 16q-172 0 -270.5 -118.5t-98.5 -290.5 q0 -126 69 -189t194 -63q76 0 145.5 17.5t77.5 17.5q49 0 49 -52q0 -40 -35 -67q-80 -70 -244 -82l-36 -215q-12 -72 -86 -72q-30 0 -48 14.5t-18 38.5q0 6 4 46l33 194q-148 19 -242 110.5t-94 258.5z" />
<glyph unicode="&#xa3;" horiz-adv-x="1036" d="M27 100q0 36 18 68t61 82q160 179 175 360h-101q-71 0 -71 64q0 39 25 63.5t73 24.5h69q-14 114 -14 168q0 200 135.5 330.5t360.5 130.5q126 0 196 -44t70 -106q0 -50 -31.5 -80.5t-79.5 -30.5q-19 0 -36 11t-32 27t-32 31.5t-44.5 26.5t-61.5 11q-104 0 -164 -73.5 t-60 -205.5q0 -45 7.5 -106t9.5 -90h250q69 0 69 -64q0 -38 -25 -63t-71 -25h-227q-39 -226 -252 -432v-2h491l66 150q34 69 82 69q53 0 53 -53q0 -33 -29 -188q-9 -55 -19 -81t-28 -44q-26 -29 -88 -29h-625q-120 0 -120 100z" />
<glyph unicode="&#xa4;" horiz-adv-x="1064" d="M61 287q0 38 39 69l117 93q-43 67 -43 157q0 102 37 193.5t104 156.5l-92 111q-20 26 -20 55q0 37 34 67t74 30q45 0 64 -43l61 -136q92 47 203 47t176 -38l100 127q31 36 70 36q35 0 61.5 -26.5t26.5 -59.5q0 -36 -39 -69l-119 -92q43 -67 43 -158q0 -102 -37.5 -193.5 t-103.5 -154.5l92 -111q23 -30 23 -57q0 -36 -35 -65t-76 -29q-44 0 -63 43l-62 133q-96 -47 -202 -47q-104 0 -177 39l-100 -125q-27 -39 -70 -39q-35 0 -60.5 26.5t-25.5 59.5zM362 633q0 -85 44 -131.5t114 -46.5q118 0 185 96t67 229q0 85 -45 131.5t-115 46.5 q-117 0 -183.5 -96t-66.5 -229z" />
<glyph unicode="&#xa5;" horiz-adv-x="1265" d="M160 1311q0 29 19.5 48t53.5 19h363q66 0 66 -55q0 -59 -80 -86l-66 -23l176 -448h4l326 448l-66 23q-55 24 -55 78q0 27 19.5 45t52.5 18h338q31 0 48 -14.5t17 -38.5q0 -62 -88 -94l-55 -21l-430 -557h205q63 0 63 -55q0 -35 -25 -56.5t-71 -21.5h-234l-18 -117h242 q63 0 63 -55q0 -35 -25 -56.5t-71 -21.5h-234l-18 -106l106 -31q34 -9 48 -23.5t14 -39.5q0 -30 -22.5 -50t-57.5 -20h-428q-66 0 -66 61q0 54 74 72l119 31l18 106h-241q-64 0 -64 56q0 36 25 56.5t71 20.5h234l20 117h-243q-64 0 -64 55q0 35 25 56.5t71 21.5h195 l-238 557l-57 21q-59 22 -59 80z" />
<glyph unicode="&#xa6;" horiz-adv-x="628" d="M63 -412q0 7 5 47l112 650q8 40 35.5 64t67.5 24q39 0 62.5 -22t23.5 -58q0 -17 -7 -49l-110 -647q-8 -40 -35.5 -64.5t-66.5 -24.5q-40 0 -63.5 21.5t-23.5 58.5zM258 725q0 22 6 49l111 633q8 40 35 64t65 24q40 0 64 -21.5t24 -58.5q0 -23 -6 -47l-111 -635 q-8 -40 -35.5 -64t-66.5 -24t-62.5 22t-23.5 58z" />
<glyph unicode="&#xa7;" horiz-adv-x="1093" d="M94 -180q0 47 33.5 79.5t79.5 32.5q23 0 45 -18t39 -39t50 -39t75 -18q66 0 108.5 42.5t42.5 108.5q0 46 -24.5 86t-63.5 70.5t-86.5 60.5t-95 62.5t-86.5 69.5t-63.5 89t-24.5 113q0 119 70 206t180 140q-56 77 -56 185q0 146 118 247t313 101q125 0 190.5 -45 t65.5 -107q0 -49 -33 -80.5t-80 -31.5q-22 0 -44 17.5t-39 38.5t-50.5 38.5t-75.5 17.5q-66 0 -109 -42.5t-43 -108.5q0 -46 24.5 -85.5t64 -70t86.5 -60t94.5 -62.5t87 -70t64 -89t24.5 -114q0 -119 -70 -206t-178 -138q53 -85 53 -185q0 -147 -117 -247.5t-313 -100.5 q-124 0 -190 45t-66 107zM344 580q0 -36 15 -66t46 -56.5t63 -48t82 -54.5t87 -62q48 31 82.5 81t34.5 113q0 36 -15 65.5t-46 56t-63 48t-82 55t-87 62.5q-117 -80 -117 -194z" />
<glyph unicode="&#xa8;" horiz-adv-x="1003" d="M299 1298q0 63 42 105.5t105 42.5q56 0 92.5 -37t36.5 -92q0 -63 -42 -105.5t-105 -42.5q-56 0 -92.5 36.5t-36.5 92.5zM705 1298q0 63 42 105.5t105 42.5q55 0 91 -36.5t36 -92.5q0 -63 -41 -105.5t-104 -42.5q-56 0 -92.5 36.5t-36.5 92.5z" />
<glyph unicode="&#xa9;" horiz-adv-x="1593" d="M117 635q0 162 58 304t158 243t240.5 159t300.5 58q299 0 481.5 -181.5t182.5 -476.5q0 -215 -99 -389.5t-272.5 -273t-386.5 -98.5q-299 0 -481 180.5t-182 474.5zM281 655q0 -251 142 -395.5t384 -144.5q249 0 408 167t159 439q0 252 -142 397.5t-384 145.5 q-122 0 -227 -43.5t-180 -122t-117.5 -193t-42.5 -250.5zM471 596q0 211 133 353.5t338 142.5q132 0 170 -45q12 -12 13.5 -32t-9.5 -81q-7 -39 -16 -78q-11 -53 -56 -53q-46 0 -49 53l-6 98q-21 15 -76 15q-107 0 -184.5 -92.5t-77.5 -249.5q0 -103 48.5 -155t138.5 -52 q48 0 96.5 12t58.5 12q18 0 27.5 -10t9.5 -24q0 -36 -33 -62q-27 -24 -84 -41.5t-127 -17.5q-149 0 -232 82t-83 225z" />
<glyph unicode="&#xaa;" horiz-adv-x="886" d="M94 494q0 40 28.5 63t76.5 23h553q69 0 69 -60q0 -40 -28 -64t-74 -24h-555q-34 0 -52 16.5t-18 45.5zM186 940q0 63 16 125.5t51.5 121.5t86 104t126 72.5t165.5 27.5q125 0 190 -45q48 -28 37 -89l-61 -362q-14 -68 28 -68q13 0 26 4.5t19 4.5q33 0 33 -39 q0 -43 -46.5 -73t-113.5 -30q-58 0 -88 29t-30 84l-2 2q-3 -5 -8 -13t-24.5 -29t-42 -37t-60.5 -29t-80 -13q-102 0 -162 65.5t-60 186.5zM375 969q0 -73 27.5 -109.5t70.5 -36.5q37 0 74 21.5t55 43.5l19 21l57 334q-29 19 -84 19q-72 0 -123.5 -46t-73.5 -110t-22 -137z " />
<glyph unicode="&#xab;" horiz-adv-x="1181" d="M86 492q0 43 51 94q133 125 385 342q33 26 62 26q32 0 55 -23t23 -54q0 -33 -27 -64l-299 -315l182 -322q12 -24 12 -41q0 -35 -28 -58.5t-66 -23.5q-42 0 -71 37q-111 138 -254 338q-25 36 -25 64zM580 492q0 26 12 47t41 47q171 160 362 321q31 27 64 27 q32 0 51.5 -21.5t19.5 -52.5q0 -33 -24 -63l-283 -299l160 -299q12 -21 12 -39q0 -35 -24.5 -59.5t-61.5 -24.5q-43 0 -69 35q-125 159 -234 319q-26 32 -26 62z" />
<glyph unicode="&#xac;" d="M141 567q0 46 25.5 71.5t71.5 25.5h641q86 0 86 -72q0 -15 -4 -51l-48 -260q-15 -97 -102 -97q-83 0 -68 97l39 221h-567q-74 0 -74 65z" />
<glyph unicode="&#xad;" horiz-adv-x="925" d="M137 524q0 45 29 74t74 29h481q78 0 78 -68q0 -45 -28.5 -73.5t-74.5 -28.5h-481q-78 0 -78 67z" />
<glyph unicode="&#xae;" horiz-adv-x="958" d="M162 1061q0 188 124 311t314 123q177 0 287 -107.5t110 -275.5q0 -188 -124 -311t-314 -123q-177 0 -287 108t-110 275zM264 1071q0 -138 84.5 -223.5t222.5 -85.5q144 0 235 93.5t91 246.5q0 139 -84.5 224t-222.5 85q-145 0 -235.5 -93.5t-90.5 -246.5zM365 903 q0 20 28 31l29 8l51 291l-31 10q-24 6 -24 29q0 10 8.5 17t22.5 7h176q151 0 151 -104q0 -44 -31 -79.5t-77 -49.5l8 -35q13 -44 27 -64.5t36 -31.5q15 -9 15 -21q0 -15 -15 -26t-41 -11q-39 0 -62.5 25t-35.5 84l-14 66h-54l-20 -107l20 -6q25 -14 25 -29q0 -11 -9.5 -19.5 t-23.5 -8.5h-135q-11 0 -17.5 6.5t-6.5 17.5zM543 1108h41q45 0 70.5 20.5t25.5 53.5q0 51 -70 51h-45z" />
<glyph unicode="&#xaf;" horiz-adv-x="1003" d="M307 1296q0 41 29 67t76 26h483q78 0 78 -70q0 -41 -29 -66.5t-76 -25.5h-483q-78 0 -78 69z" />
<glyph unicode="&#xb0;" horiz-adv-x="819" d="M221 1194q0 126 92 213.5t230 87.5t217.5 -75.5t79.5 -200.5q0 -126 -92 -213.5t-230 -87.5t-217.5 75.5t-79.5 200.5zM377 1206q0 -71 42.5 -114t110.5 -43q67 0 110.5 44t43.5 115q0 69 -43 112.5t-111 43.5q-67 0 -110 -44t-43 -114z" />
<glyph unicode="&#xb1;" d="M43 66q0 46 26 72t70 26h678q74 0 74 -68q0 -44 -26 -70t-72 -26h-676q-74 0 -74 66zM160 729q0 45 25.5 70.5t70.5 25.5h254l45 260q18 99 104 99q40 0 58.5 -25t11.5 -74l-45 -260h248q74 0 74 -65q0 -46 -26 -71t-73 -25h-252l-45 -261q-15 -98 -104 -98 q-41 0 -59 24.5t-9 73.5l45 261h-250q-73 0 -73 65z" />
<glyph unicode="&#xb2;" horiz-adv-x="688" d="M109 725q0 60 63 111l129 108q94 78 135 125.5t41 95.5q0 72 -102 72q-39 0 -77 -8t-48 -8q-43 0 -43 51q0 33 33 59q81 60 211 60q122 0 184.5 -50t62.5 -133q0 -28 -8.5 -55.5t-18 -49t-35 -50.5t-40.5 -45.5t-54.5 -49t-57 -46.5t-66.5 -52l-90 -74h204l27 52 q23 47 62 47q45 0 45 -45q0 -6 -15 -92q-14 -78 -35 -99q-18 -18 -63 -18h-350q-44 0 -69 25t-25 69z" />
<glyph unicode="&#xb3;" horiz-adv-x="702" d="M121 739q0 34 22 57t52 23q17 0 36 -15.5t47 -31.5t66 -16q56 0 89.5 28.5t33.5 75.5q0 42 -37 63t-133 21q-64 0 -64 70q0 35 25 51q19 16 70 16q168 0 168 99q0 57 -95 57q-41 0 -80.5 -9t-48.5 -9q-19 0 -31 14.5t-12 36.5q0 32 31 57q29 26 87.5 45t135.5 19 q113 0 170.5 -44.5t57.5 -119.5q0 -71 -42.5 -120.5t-103.5 -72.5v-4q57 -12 88 -51t31 -94q0 -118 -98 -192.5t-262 -74.5q-94 0 -148.5 33t-54.5 88z" />
<glyph unicode="&#xb4;" horiz-adv-x="1003" d="M449 1212q0 26 20 52l182 215q33 41 78 41q43 0 72.5 -32t29.5 -71q0 -43 -38 -71l-226 -177q-27 -20 -51 -20q-29 0 -48 18t-19 45z" />
<glyph unicode="&#xb6;" horiz-adv-x="1282" d="M182 831q0 259 143.5 403t428.5 144h518q59 0 59 -49q0 -58 -82 -82l-96 -26l-235 -1377l90 -24q36 -12 50.5 -26t14.5 -38q0 -29 -21.5 -48t-58.5 -19h-209q-34 0 -50.5 19.5t-10.5 53.5l252 1455h-131l-252 -1455q-6 -34 -29 -53.5t-57 -19.5h-211q-64 0 -64 53 q0 27 18 45t66 31l111 26l111 648q-168 5 -261.5 94t-93.5 245z" />
<glyph unicode="&#xb7;" horiz-adv-x="579" d="M139 535q0 67 47 114t113 47q68 0 109 -40t41 -107t-47.5 -114.5t-114.5 -47.5q-66 0 -107 41t-41 107z" />
<glyph unicode="&#xb8;" horiz-adv-x="1003" d="M276 -424q0 25 17.5 41t46.5 16q10 0 30.5 -1t30.5 -1q61 0 93 23t32 61q0 56 -80 56q-22 0 -28.5 14t4.5 39l74 176h129l-37 -88q73 -8 117.5 -48.5t44.5 -107.5q0 -106 -99 -177t-260 -71q-115 0 -115 68z" />
<glyph unicode="&#xb9;" horiz-adv-x="565" d="M96 684q0 51 62 68l94 24l76 428l-54 -10q-27 -6 -53 -6q-21 0 -34 13.5t-13 37.5q0 30 33 53q44 33 126.5 63.5t135.5 30.5q88 0 70 -104l-88 -506l71 -20q49 -16 49 -60q0 -29 -20 -47t-51 -18h-346q-28 0 -43 14t-15 39z" />
<glyph unicode="&#xba;" horiz-adv-x="892" d="M94 494q0 40 28.5 63t76.5 23h528q70 0 70 -60q0 -40 -29 -64t-76 -24h-528q-34 0 -52 16.5t-18 45.5zM186 948q0 190 120 316.5t292 126.5q140 0 216.5 -71t76.5 -192q0 -189 -120 -314.5t-294 -125.5q-139 0 -215 70t-76 190zM375 971q0 -74 34.5 -114t92.5 -40 q63 0 109.5 43t67.5 107.5t21 138.5t-34.5 114t-92.5 40q-94 0 -146 -85.5t-52 -203.5z" />
<glyph unicode="&#xbb;" horiz-adv-x="1181" d="M49 145q0 35 25 64l282 299l-159 299q-11 22 -11 41q0 35 24.5 59.5t59.5 24.5q42 0 70 -35q56 -69 235 -319q25 -41 25 -64q0 -26 -11 -46t-42 -48q-171 -162 -363 -322q-30 -26 -61 -26q-32 0 -53 21.5t-21 51.5zM520 129q0 35 25 64l299 317l-182 321q-11 19 -11 39 q0 35 28 59.5t64 24.5q41 0 72 -36q115 -145 254 -340q27 -39 27 -62q0 -25 -12 -45t-42 -49q-163 -152 -383 -342q-34 -27 -63 -27q-32 0 -54 23t-22 53z" />
<glyph unicode="&#xbc;" horiz-adv-x="1622" d="M96 684q0 51 62 68l94 24l76 428l-54 -10q-27 -6 -53 -6q-21 0 -34 13.5t-13 37.5q0 30 33 53q44 33 126.5 63.5t135.5 30.5q88 0 70 -104l-88 -506l71 -20q49 -16 49 -60q0 -29 -20 -47t-51 -18h-346q-28 0 -43 14t-15 39zM272 47q0 26 23 59l950 1260q27 37 66 37 q28 0 48.5 -19.5t20.5 -48.5q0 -30 -22 -61l-952 -1258q-26 -39 -66 -39q-28 0 -48 20.5t-20 49.5zM864 299q0 54 51 111l238 254q51 54 93 74t106 20q65 0 91 -26t17 -77l-51 -301h59q52 0 52 -55q0 -39 -23 -63.5t-59 -24.5h-56l-12 -76l43 -14q41 -17 41 -53 q0 -29 -21 -48.5t-53 -19.5h-260q-57 0 -57 51q0 48 59 66l58 18l12 76h-234q-94 0 -94 88zM1038 354h179l40 236z" />
<glyph unicode="&#xbd;" horiz-adv-x="1630" d="M96 684q0 51 62 68l94 24l76 428l-54 -10q-27 -6 -53 -6q-21 0 -34 13.5t-13 37.5q0 30 33 53q44 33 126.5 63.5t135.5 30.5q88 0 70 -104l-88 -506l71 -20q49 -16 49 -60q0 -29 -20 -47t-51 -18h-346q-28 0 -43 14t-15 39zM272 47q0 26 23 59l950 1260q27 37 66 37 q28 0 48.5 -19.5t20.5 -48.5q0 -30 -22 -61l-952 -1258q-26 -39 -66 -39q-28 0 -48 20.5t-20 49.5zM940 94q0 59 64 111l129 108q94 77 135 125.5t41 96.5q0 71 -103 71q-39 0 -77 -8t-48 -8q-43 0 -43 51q0 33 33 59q81 60 211 60q122 0 185 -49.5t63 -132.5 q0 -28 -8.5 -55.5t-18.5 -49t-35 -50.5t-40.5 -46t-54.5 -49.5t-57.5 -46.5t-66.5 -52l-90 -73h205l27 51q12 25 26 36t35 11q45 0 45 -45q0 -12 -14 -92q-14 -78 -35 -99q-18 -18 -64 -18h-350q-44 0 -69 25t-25 69z" />
<glyph unicode="&#xbe;" horiz-adv-x="1665" d="M121 739q0 34 22 57t52 23q17 0 36 -15.5t47 -31.5t66 -16q56 0 89.5 28.5t33.5 75.5q0 42 -37 63t-133 21q-64 0 -64 70q0 35 25 51q19 16 70 16q168 0 168 99q0 57 -95 57q-41 0 -80.5 -9t-48.5 -9q-19 0 -31 14.5t-12 36.5q0 32 31 57q29 26 87.5 45t135.5 19 q113 0 170.5 -44.5t57.5 -119.5q0 -71 -42.5 -120.5t-103.5 -72.5v-4q57 -12 88 -51t31 -94q0 -118 -98 -192.5t-262 -74.5q-94 0 -148.5 33t-54.5 88zM315 47q0 26 23 59l950 1260q27 37 66 37q28 0 48.5 -19.5t20.5 -48.5q0 -30 -22 -61l-952 -1258q-26 -39 -66 -39 q-28 0 -48 20.5t-20 49.5zM905 299q0 54 51 111l238 254q51 54 93 74t106 20q65 0 91 -26t17 -77l-51 -301h59q52 0 52 -55q0 -39 -23 -63.5t-59 -24.5h-56l-12 -76l43 -14q41 -17 41 -53q0 -29 -21 -48.5t-53 -19.5h-260q-57 0 -57 51q0 48 59 66l58 18l12 76h-234 q-94 0 -94 88zM1079 354h178l41 236z" />
<glyph unicode="&#xbf;" horiz-adv-x="755" d="M-66 -160q0 73 23 135t60 107t81.5 85.5t89 77.5t81.5 75.5t60 88t23 105.5q0 12 -2 33t-2 31q0 42 30.5 64t82.5 22q53 0 82.5 -34t29.5 -98q0 -66 -22 -123.5t-57 -99.5t-77 -80.5t-84.5 -75t-77.5 -74t-57 -86.5t-22 -104q0 -69 42 -110t126 -41q62 0 121.5 19.5 t75.5 19.5q27 0 43 -17t16 -43q0 -33 -35 -65q-40 -33 -116 -56.5t-175 -23.5q-162 0 -251 74t-89 194zM358 928q0 67 46 113t114 46q62 0 101.5 -39.5t39.5 -101.5q0 -68 -46 -114t-113 -46q-63 0 -102.5 39.5t-39.5 102.5z" />
<glyph unicode="&#xc0;" horiz-adv-x="1421" d="M-55 61q0 28 18.5 47.5t61.5 36.5l63 23l580 1081q42 80 85 110t109 30q68 0 101.5 -30t48.5 -110l202 -1081l60 -23q35 -13 49 -29.5t14 -41.5q0 -33 -22.5 -53.5t-61.5 -20.5h-360q-68 0 -68 61q0 28 17.5 46.5t58.5 33.5l84 25l-39 223h-532l-117 -223l68 -23 q39 -14 54 -28.5t15 -40.5q0 -33 -22.5 -53.5t-61.5 -20.5h-336q-69 0 -69 61zM489 539h431l-72 417l-31 220h-4q-49 -107 -106 -220zM653 1739q0 43 36 79.5t79 36.5q34 0 57 -26l191 -213q20 -23 20 -45q0 -31 -21.5 -53.5t-51.5 -22.5q-23 0 -43 14l-228 162 q-39 29 -39 68z" />
<glyph unicode="&#xc1;" horiz-adv-x="1421" d="M-55 61q0 28 18.5 47.5t61.5 36.5l63 23l580 1081q42 80 85 110t109 30q68 0 101.5 -30t48.5 -110l202 -1081l60 -23q35 -13 49 -29.5t14 -41.5q0 -33 -22.5 -53.5t-61.5 -20.5h-360q-68 0 -68 61q0 28 17.5 46.5t58.5 33.5l84 25l-39 223h-532l-117 -223l68 -23 q39 -14 54 -28.5t15 -40.5q0 -33 -22.5 -53.5t-61.5 -20.5h-336q-69 0 -69 61zM489 539h431l-72 417l-31 220h-4q-49 -107 -106 -220zM748 1573q0 33 30 59l226 185q21 19 49 22q40 3 72 -28t34 -72q0 -58 -51 -84l-258 -135q-22 -11 -37 -11q-28 0 -46.5 19t-18.5 45z" />
<glyph unicode="&#xc2;" horiz-adv-x="1421" d="M-55 61q0 28 18.5 47.5t61.5 36.5l63 23l580 1081q42 80 85 110t109 30q68 0 101.5 -30t48.5 -110l202 -1081l60 -23q35 -13 49 -29.5t14 -41.5q0 -33 -22.5 -53.5t-61.5 -20.5h-360q-68 0 -68 61q0 28 17.5 46.5t58.5 33.5l84 25l-39 223h-532l-117 -223l68 -23 q39 -14 54 -28.5t15 -40.5q0 -33 -22.5 -53.5t-61.5 -20.5h-336q-69 0 -69 61zM489 539h431l-72 417l-31 220h-4q-49 -107 -106 -220zM592 1563q0 30 26 53l244 201q40 34 84 34q45 0 72 -34l168 -203q18 -24 18 -47q0 -29 -22.5 -50.5t-53.5 -21.5q-26 0 -47 18l-166 140 l-221 -137q-27 -15 -43 -15q-24 0 -41.5 19t-17.5 43z" />
<glyph unicode="&#xc3;" horiz-adv-x="1421" d="M-55 61q0 28 18.5 47.5t61.5 36.5l63 23l580 1081q42 80 85 110t109 30q68 0 101.5 -30t48.5 -110l202 -1081l60 -23q35 -13 49 -29.5t14 -41.5q0 -33 -22.5 -53.5t-61.5 -20.5h-360q-68 0 -68 61q0 28 17.5 46.5t58.5 33.5l84 25l-39 223h-532l-117 -223l68 -23 q39 -14 54 -28.5t15 -40.5q0 -33 -22.5 -53.5t-61.5 -20.5h-336q-69 0 -69 61zM489 539h431l-72 417l-31 220h-4q-49 -107 -106 -220zM557 1608q0 55 80.5 116.5t173.5 61.5q40 0 77.5 -14t61 -30t52 -30t53.5 -14q29 0 53.5 12t38.5 26t32 26t35 12q27 0 42.5 -17t15.5 -47 q0 -55 -80 -116.5t-174 -61.5q-40 0 -77.5 14t-61 30t-52 30t-53.5 14q-37 0 -65.5 -18.5t-51 -37t-43.5 -18.5q-57 0 -57 62z" />
<glyph unicode="&#xc4;" horiz-adv-x="1421" d="M-55 61q0 28 18.5 47.5t61.5 36.5l63 23l580 1081q42 80 85 110t109 30q68 0 101.5 -30t48.5 -110l202 -1081l60 -23q35 -13 49 -29.5t14 -41.5q0 -33 -22.5 -53.5t-61.5 -20.5h-360q-68 0 -68 61q0 28 17.5 46.5t58.5 33.5l84 25l-39 223h-532l-117 -223l68 -23 q39 -14 54 -28.5t15 -40.5q0 -33 -22.5 -53.5t-61.5 -20.5h-336q-69 0 -69 61zM489 539h431l-72 417l-31 220h-4q-49 -107 -106 -220zM569 1642q0 63 42 105.5t106 42.5q57 0 93 -36.5t36 -94.5q0 -63 -41.5 -105.5t-104.5 -42.5q-58 0 -94.5 37t-36.5 94zM991 1642 q0 63 42.5 105.5t105.5 42.5q59 0 95 -36t36 -95q0 -63 -42 -105.5t-106 -42.5q-58 0 -94.5 37t-36.5 94z" />
<glyph unicode="&#xc5;" horiz-adv-x="1421" d="M-55 61q0 28 18.5 47.5t61.5 36.5l63 23l580 1081q42 80 85 110t109 30q68 0 101.5 -30t48.5 -110l202 -1081l60 -23q35 -13 49 -29.5t14 -41.5q0 -33 -22.5 -53.5t-61.5 -20.5h-360q-68 0 -68 61q0 28 17.5 46.5t58.5 33.5l84 25l-39 223h-532l-117 -223l68 -23 q39 -14 54 -28.5t15 -40.5q0 -33 -22.5 -53.5t-61.5 -20.5h-336q-69 0 -69 61zM489 539h431l-72 417l-31 220h-4q-49 -107 -106 -220zM651 1712q0 103 80.5 174.5t198.5 71.5t188 -61t70 -164t-80.5 -174.5t-198.5 -71.5t-188 61t-70 164zM799 1722q0 -55 33.5 -89t87.5 -34 t87 34t33 89q0 54 -33 88.5t-87 34.5t-87.5 -34.5t-33.5 -88.5z" />
<glyph unicode="&#xc6;" horiz-adv-x="1904" d="M-66 61q0 51 80 84l66 23l856 1118q40 54 75.5 73t88.5 19h727q46 0 69 -19.5t23 -53.5q0 -29 -14 -117q-7 -54 -19 -101q-12 -65 -76 -65q-30 0 -46.5 17t-22.5 59l-12 119h-414l-76 -443h317l33 70q19 36 37 50.5t45 14.5q65 0 53 -71l-47 -279q-12 -74 -73 -74 q-52 0 -66 74l-8 64h-318l-79 -461h436l59 135q33 70 86 70q60 0 60 -58q0 -25 -23 -151q-11 -61 -20 -87t-25 -40q-27 -31 -92 -31h-801q-70 0 -70 61q0 54 80 82l84 27l37 219h-473l-166 -221l68 -23q38 -15 52.5 -30t14.5 -41q0 -33 -22.5 -53.5t-61.5 -20.5h-352 q-70 0 -70 61zM578 539h391l116 669h-4z" />
<glyph unicode="&#xc7;" horiz-adv-x="1204" d="M106 487q0 138 35.5 270.5t107 248t169.5 203t232 138t286 50.5q104 0 174 -18.5t96 -47.5q21 -24 21 -63q0 -34 -15 -125q-19 -98 -28 -139q-14 -64 -74 -64q-59 0 -68 72l-20 194q-33 23 -127 23q-162 0 -289 -101t-192.5 -261t-65.5 -345q0 -176 93 -271t257 -95 q75 0 138.5 13t102.5 25.5t54 12.5q24 0 37.5 -13.5t13.5 -37.5q0 -36 -32 -68q-43 -43 -151 -76t-249 -30l-28 -70q73 -8 117 -48.5t44 -107.5q0 -106 -99.5 -177t-260.5 -71q-113 0 -113 68q0 25 17.5 41t46.5 16q10 0 30.5 -1t30.5 -1q61 0 93 23t32 61q0 56 -80 56 q-48 0 -26 53l71 170q-179 36 -280 161t-101 332z" />
<glyph unicode="&#xc8;" horiz-adv-x="1169" d="M-14 61q0 58 75 78l111 29l180 1042l-88 23q-71 22 -71 74q0 31 20 51t55 20h824q90 0 90 -73q0 -15 -13 -117q-11 -66 -18 -101q-15 -65 -76 -65q-30 0 -46.5 17t-22.5 59l-13 119h-413l-76 -443h317l33 70q19 36 37 50.5t45 14.5q65 0 53 -71l-47 -279q-12 -74 -74 -74 q-27 0 -42.5 17.5t-22.5 56.5l-8 64h-318l-80 -461h437l59 135q33 70 86 70q59 0 59 -58q0 -30 -22 -151q-11 -61 -20 -87t-25 -40q-27 -31 -92 -31h-824q-69 0 -69 61zM516 1739q0 43 36 79.5t79 36.5q34 0 57 -26l191 -213q20 -23 20 -45q0 -31 -21.5 -53.5t-52.5 -22.5 q-23 0 -43 14l-227 162q-39 29 -39 68z" />
<glyph unicode="&#xc9;" horiz-adv-x="1169" d="M-14 61q0 58 75 78l111 29l180 1042l-88 23q-71 22 -71 74q0 31 20 51t55 20h824q90 0 90 -73q0 -15 -13 -117q-11 -66 -18 -101q-15 -65 -76 -65q-30 0 -46.5 17t-22.5 59l-13 119h-413l-76 -443h317l33 70q19 36 37 50.5t45 14.5q65 0 53 -71l-47 -279q-12 -74 -74 -74 q-27 0 -42.5 17.5t-22.5 56.5l-8 64h-318l-80 -461h437l59 135q33 70 86 70q59 0 59 -58q0 -30 -22 -151q-11 -61 -20 -87t-25 -40q-27 -31 -92 -31h-824q-69 0 -69 61zM678 1573q0 32 31 59l225 185q21 19 49 22q41 3 73 -28t34 -72q0 -57 -52 -84l-258 -135 q-22 -11 -37 -11q-28 0 -46.5 19t-18.5 45z" />
<glyph unicode="&#xca;" horiz-adv-x="1169" d="M-14 61q0 58 75 78l111 29l180 1042l-88 23q-71 22 -71 74q0 31 20 51t55 20h824q90 0 90 -73q0 -15 -13 -117q-11 -66 -18 -101q-15 -65 -76 -65q-30 0 -46.5 17t-22.5 59l-13 119h-413l-76 -443h317l33 70q19 36 37 50.5t45 14.5q65 0 53 -71l-47 -279q-12 -74 -74 -74 q-27 0 -42.5 17.5t-22.5 56.5l-8 64h-318l-80 -461h437l59 135q33 70 86 70q59 0 59 -58q0 -30 -22 -151q-11 -61 -20 -87t-25 -40q-27 -31 -92 -31h-824q-69 0 -69 61zM485 1563q0 29 27 53l244 201q40 34 84 34t71 -34l168 -203q19 -25 19 -47q0 -29 -22.5 -50.5 t-53.5 -21.5q-26 0 -47 18l-166 140l-221 -137q-27 -15 -43 -15q-24 0 -42 19t-18 43z" />
<glyph unicode="&#xcb;" horiz-adv-x="1169" d="M-14 61q0 58 75 78l111 29l180 1042l-88 23q-71 22 -71 74q0 31 20 51t55 20h824q90 0 90 -73q0 -15 -13 -117q-11 -66 -18 -101q-15 -65 -76 -65q-30 0 -46.5 17t-22.5 59l-13 119h-413l-76 -443h317l33 70q19 36 37 50.5t45 14.5q65 0 53 -71l-47 -279q-12 -74 -74 -74 q-27 0 -42.5 17.5t-22.5 56.5l-8 64h-318l-80 -461h437l59 135q33 70 86 70q59 0 59 -58q0 -30 -22 -151q-11 -61 -20 -87t-25 -40q-27 -31 -92 -31h-824q-69 0 -69 61zM442 1642q0 63 42 105.5t106 42.5q57 0 93 -36.5t36 -94.5q0 -63 -41.5 -105.5t-104.5 -42.5 q-58 0 -94.5 37t-36.5 94zM864 1642q0 63 42.5 105.5t105.5 42.5q58 0 94.5 -36t36.5 -95q0 -63 -42 -105.5t-106 -42.5q-58 0 -94.5 37t-36.5 94z" />
<glyph unicode="&#xcc;" horiz-adv-x="686" d="M-14 61q0 59 75 78l109 29l180 1042l-86 23q-74 22 -74 74q0 31 21 51t55 20h430q68 0 68 -57q0 -32 -20 -52.5t-72 -33.5l-94 -25l-181 -1042l95 -27q36 -10 50.5 -26t14.5 -41q0 -33 -22.5 -53.5t-61.5 -20.5h-418q-69 0 -69 61zM293 1739q0 43 36 79.5t79 36.5 q34 0 57 -26l190 -213q21 -24 21 -45q0 -31 -21.5 -53.5t-52.5 -22.5q-23 0 -43 14l-227 162q-39 29 -39 68z" />
<glyph unicode="&#xcd;" horiz-adv-x="686" d="M-14 61q0 59 75 78l109 29l180 1042l-86 23q-74 22 -74 74q0 31 21 51t55 20h430q68 0 68 -57q0 -32 -20 -52.5t-72 -33.5l-94 -25l-181 -1042l95 -27q36 -10 50.5 -26t14.5 -41q0 -33 -22.5 -53.5t-61.5 -20.5h-418q-69 0 -69 61zM387 1573q0 32 31 59l225 185 q21 19 49 22q41 3 73 -28t34 -72q0 -58 -51 -84l-259 -135q-22 -11 -36 -11q-28 0 -47 19t-19 45z" />
<glyph unicode="&#xce;" horiz-adv-x="686" d="M-14 61q0 59 75 78l109 29l180 1042l-86 23q-74 22 -74 74q0 31 21 51t55 20h430q68 0 68 -57q0 -32 -20 -52.5t-72 -33.5l-94 -25l-181 -1042l95 -27q36 -10 50.5 -26t14.5 -41q0 -33 -22.5 -53.5t-61.5 -20.5h-418q-69 0 -69 61zM227 1563q0 29 27 53l244 201 q40 34 84 34t71 -34l168 -203q19 -25 19 -47q0 -29 -22.5 -50.5t-53.5 -21.5q-26 0 -47 18l-166 140l-221 -137q-27 -15 -43 -15q-24 0 -42 19t-18 43z" />
<glyph unicode="&#xcf;" horiz-adv-x="686" d="M-14 61q0 59 75 78l109 29l180 1042l-86 23q-74 22 -74 74q0 31 21 51t55 20h430q68 0 68 -57q0 -32 -20 -52.5t-72 -33.5l-94 -25l-181 -1042l95 -27q36 -10 50.5 -26t14.5 -41q0 -33 -22.5 -53.5t-61.5 -20.5h-418q-69 0 -69 61zM197 1642q0 63 41.5 105.5t105.5 42.5 q57 0 93 -36.5t36 -94.5q0 -63 -41 -105.5t-104 -42.5q-58 0 -94.5 37t-36.5 94zM618 1642q0 63 42.5 105.5t105.5 42.5q58 0 94.5 -36t36.5 -95q0 -63 -41.5 -105.5t-105.5 -42.5q-58 0 -95 37t-37 94z" />
<glyph unicode="&#xd0;" horiz-adv-x="1468" d="M33 61q0 59 76 78l108 29l82 465h-123q-70 0 -70 59q0 43 27 69.5t76 26.5h117l73 422l-88 23q-71 22 -71 74q0 31 20 51t55 20h490q311 0 464.5 -131t153.5 -368q0 -406 -244 -642.5t-663 -236.5h-414q-69 0 -69 61zM444 166h119q290 0 454.5 176.5t164.5 503.5 q0 183 -102.5 274.5t-323.5 91.5h-129l-76 -424h215q72 0 72 -59q0 -43 -27 -69.5t-78 -26.5h-209z" />
<glyph unicode="&#xd1;" horiz-adv-x="1540" d="M-14 61q0 59 75 78l109 29l180 1042l-86 23q-74 22 -74 74q0 31 21 51t55 20h262q46 0 75 -16t48 -59l373 -787q23 -49 46.5 -107.5t35.5 -92.5l12 -33l4 2q13 129 33 260l111 665l-86 23q-74 22 -74 74q0 31 21.5 51t56.5 20h389q67 0 67 -57q0 -31 -19.5 -51.5 t-72.5 -34.5l-90 -25l-188 -1085q-21 -135 -152 -135q-55 0 -88 22t-57 72l-369 778q-23 49 -46 107t-34 91l-12 34l-4 -2q-12 -128 -35 -261l-111 -663l97 -27q65 -19 65 -67q0 -33 -22.5 -53.5t-61.5 -20.5h-385q-69 0 -69 61zM616 1608q0 55 80.5 116.5t173.5 61.5 q40 0 77.5 -14t61 -30t52 -30t53.5 -14q37 0 65.5 19t51 38t43.5 19q27 0 42 -17t15 -47q0 -55 -80 -116.5t-174 -61.5q-40 0 -77.5 14t-60.5 30t-51.5 30t-53.5 14q-37 0 -65.5 -18.5t-51 -37t-43.5 -18.5q-27 0 -42.5 16t-15.5 46z" />
<glyph unicode="&#xd2;" horiz-adv-x="1478" d="M106 496q0 177 56.5 340t158 288t255.5 200t337 75q246 0 383.5 -136.5t137.5 -379.5q0 -141 -35 -274.5t-104.5 -247t-165 -199t-224.5 -134t-276 -48.5q-246 0 -384.5 136.5t-138.5 379.5zM350 528q0 -186 85.5 -283.5t234.5 -97.5q115 0 214 59t165.5 157.5t104.5 225 t38 261.5q0 186 -85.5 283.5t-234.5 97.5q-115 0 -214 -59t-165.5 -157.5t-104.5 -225t-38 -261.5zM682 1739q0 43 36 79.5t79 36.5q34 0 57 -26l190 -213q21 -24 21 -45q0 -31 -21.5 -53.5t-52.5 -22.5q-23 0 -43 14l-227 162q-39 29 -39 68z" />
<glyph unicode="&#xd3;" horiz-adv-x="1478" d="M106 496q0 177 56.5 340t158 288t255.5 200t337 75q246 0 383.5 -136.5t137.5 -379.5q0 -141 -35 -274.5t-104.5 -247t-165 -199t-224.5 -134t-276 -48.5q-246 0 -384.5 136.5t-138.5 379.5zM350 528q0 -186 85.5 -283.5t234.5 -97.5q115 0 214 59t165.5 157.5t104.5 225 t38 261.5q0 186 -85.5 283.5t-234.5 97.5q-115 0 -214 -59t-165.5 -157.5t-104.5 -225t-38 -261.5zM819 1573q0 32 31 59l225 185q21 19 49 22q41 3 73 -28t34 -72q0 -58 -51 -84l-258 -135q-22 -11 -37 -11q-28 0 -47 19t-19 45z" />
<glyph unicode="&#xd4;" horiz-adv-x="1478" d="M106 496q0 177 56.5 340t158 288t255.5 200t337 75q246 0 383.5 -136.5t137.5 -379.5q0 -141 -35 -274.5t-104.5 -247t-165 -199t-224.5 -134t-276 -48.5q-246 0 -384.5 136.5t-138.5 379.5zM350 528q0 -186 85.5 -283.5t234.5 -97.5q115 0 214 59t165.5 157.5t104.5 225 t38 261.5q0 186 -85.5 283.5t-234.5 97.5q-115 0 -214 -59t-165.5 -157.5t-104.5 -225t-38 -261.5zM633 1563q0 30 26 53l244 201q40 34 84 34q45 0 72 -34l168 -203q18 -24 18 -47q0 -29 -22.5 -50.5t-53.5 -21.5q-26 0 -47 18l-166 140l-221 -137q-27 -15 -43 -15 q-24 0 -41.5 19t-17.5 43z" />
<glyph unicode="&#xd5;" horiz-adv-x="1478" d="M106 496q0 177 56.5 340t158 288t255.5 200t337 75q246 0 383.5 -136.5t137.5 -379.5q0 -141 -35 -274.5t-104.5 -247t-165 -199t-224.5 -134t-276 -48.5q-246 0 -384.5 136.5t-138.5 379.5zM350 528q0 -186 85.5 -283.5t234.5 -97.5q115 0 214 59t165.5 157.5t104.5 225 t38 261.5q0 186 -85.5 283.5t-234.5 97.5q-115 0 -214 -59t-165.5 -157.5t-104.5 -225t-38 -261.5zM590 1608q0 55 80.5 116.5t173.5 61.5q40 0 77.5 -14t60.5 -30t51.5 -30t53.5 -14q37 0 65.5 19t51 38t43.5 19q27 0 42.5 -17t15.5 -47q0 -55 -80 -116.5t-174 -61.5 q-40 0 -77.5 14t-61 30t-52 30t-53.5 14q-37 0 -65.5 -18.5t-51 -37t-43.5 -18.5q-57 0 -57 62z" />
<glyph unicode="&#xd6;" horiz-adv-x="1478" d="M106 496q0 177 56.5 340t158 288t255.5 200t337 75q246 0 383.5 -136.5t137.5 -379.5q0 -141 -35 -274.5t-104.5 -247t-165 -199t-224.5 -134t-276 -48.5q-246 0 -384.5 136.5t-138.5 379.5zM350 528q0 -186 85.5 -283.5t234.5 -97.5q115 0 214 59t165.5 157.5t104.5 225 t38 261.5q0 186 -85.5 283.5t-234.5 97.5q-115 0 -214 -59t-165.5 -157.5t-104.5 -225t-38 -261.5zM600 1642q0 63 42 105.5t106 42.5q57 0 93 -36.5t36 -94.5q0 -63 -41.5 -105.5t-104.5 -42.5q-58 0 -94.5 37t-36.5 94zM1022 1642q0 63 42 105.5t105 42.5q59 0 95 -36 t36 -95q0 -63 -41.5 -105.5t-105.5 -42.5q-58 0 -94.5 37t-36.5 94z" />
<glyph unicode="&#xd7;" d="M113 266q0 38 37 72l292 250l-213 246q-24 27 -24 61q-1 32 23 56t57 24q39 0 71 -37l211 -246l289 254q38 27 68 27q31 0 53 -21.5t22 -52.5q0 -40 -38 -72l-293 -249l213 -244q26 -33 26 -64q0 -32 -25 -56t-59 -24q-35 0 -69 37l-211 244l-289 -252q-33 -26 -66 -26 q-32 0 -53.5 20.5t-21.5 52.5z" />
<glyph unicode="&#xd8;" horiz-adv-x="1478" d="M104 -129q0 30 19 57l129 181q-146 136 -146 387q0 177 56.5 340t158 288t255.5 200t337 75q136 0 236 -41l131 184q28 41 76 41q31 0 56.5 -22.5t25.5 -53.5q0 -30 -19 -57l-131 -180q146 -136 146 -387q0 -177 -56.5 -340t-158 -288t-255.5 -200t-337 -75 q-133 0 -234 40l-133 -184q-28 -41 -74 -41q-30 0 -56 23t-26 53zM340 528q0 -139 49 -233l647 901q-61 39 -164 39q-115 0 -216 -59.5t-169.5 -158t-107.5 -226.5t-39 -263zM504 180q70 -37 164 -37q93 0 177 38.5t148 106.5t112 156.5t72.5 193t24.5 212.5q0 139 -51 231z " />
<glyph unicode="&#xd9;" horiz-adv-x="1419" d="M152 1307q0 31 20 51t55 20h404q67 0 67 -57q0 -31 -19 -51.5t-69 -34.5l-84 -25l-114 -659q-70 -406 247 -406q153 0 254.5 98t135.5 296l116 671l-84 21q-75 24 -75 76q0 31 21 51t56 20h373q70 0 70 -57q0 -31 -19.5 -51t-70.5 -37l-74 -23l-115 -663 q-99 -567 -631 -567q-266 0 -374.5 139t-59.5 422l117 669l-72 21q-75 23 -75 76zM610 1739q0 43 36 79.5t79 36.5q34 0 57 -26l191 -213q20 -23 20 -45q0 -31 -21.5 -53.5t-51.5 -22.5q-23 0 -43 14l-228 162q-39 29 -39 68z" />
<glyph unicode="&#xda;" horiz-adv-x="1419" d="M152 1307q0 31 20 51t55 20h404q67 0 67 -57q0 -31 -19 -51.5t-69 -34.5l-84 -25l-114 -659q-70 -406 247 -406q153 0 254.5 98t135.5 296l116 671l-84 21q-75 24 -75 76q0 31 21 51t56 20h373q70 0 70 -57q0 -31 -19.5 -51t-70.5 -37l-74 -23l-115 -663 q-99 -567 -631 -567q-266 0 -374.5 139t-59.5 422l117 669l-72 21q-75 23 -75 76zM817 1573q0 32 31 59l225 185q21 19 49 22q41 3 73 -28t34 -72q0 -58 -51 -84l-258 -135q-22 -11 -37 -11q-28 0 -47 19t-19 45z" />
<glyph unicode="&#xdb;" horiz-adv-x="1419" d="M152 1307q0 31 20 51t55 20h404q67 0 67 -57q0 -31 -19 -51.5t-69 -34.5l-84 -25l-114 -659q-70 -406 247 -406q153 0 254.5 98t135.5 296l116 671l-84 21q-75 24 -75 76q0 31 21 51t56 20h373q70 0 70 -57q0 -31 -19.5 -51t-70.5 -37l-74 -23l-115 -663 q-99 -567 -631 -567q-266 0 -374.5 139t-59.5 422l117 669l-72 21q-75 23 -75 76zM594 1563q0 29 27 53l243 201q40 34 84 34q45 0 72 -34l168 -203q18 -24 18 -47q0 -29 -22.5 -50.5t-53.5 -21.5q-26 0 -47 18l-165 140l-222 -137q-27 -15 -43 -15q-24 0 -41.5 19t-17.5 43 z" />
<glyph unicode="&#xdc;" horiz-adv-x="1419" d="M152 1307q0 31 20 51t55 20h404q67 0 67 -57q0 -31 -19 -51.5t-69 -34.5l-84 -25l-114 -659q-70 -406 247 -406q153 0 254.5 98t135.5 296l116 671l-84 21q-75 24 -75 76q0 31 21 51t56 20h373q70 0 70 -57q0 -31 -19.5 -51t-70.5 -37l-74 -23l-115 -663 q-99 -567 -631 -567q-266 0 -374.5 139t-59.5 422l117 669l-72 21q-75 23 -75 76zM578 1642q0 63 41.5 105.5t105.5 42.5q57 0 93 -36.5t36 -94.5q0 -63 -41 -105.5t-104 -42.5q-58 0 -94.5 37t-36.5 94zM999 1642q0 63 42.5 105.5t105.5 42.5q59 0 95 -36t36 -95 q0 -63 -42 -105.5t-106 -42.5q-58 0 -94.5 37t-36.5 94z" />
<glyph unicode="&#xdd;" horiz-adv-x="1294" d="M147 1307q0 31 21 51t55 20h387q68 0 68 -57q0 -31 -19 -52t-73 -40l-62 -19l187 -465h4l336 465l-54 21q-35 16 -52 33.5t-17 42.5q0 31 20.5 51t55.5 20h344q69 0 69 -57q0 -31 -19 -51.5t-71 -38.5l-57 -21l-500 -649l-65 -393l100 -27q36 -10 51.5 -26t15.5 -41 q0 -33 -22.5 -53.5t-61.5 -20.5h-438q-69 0 -69 61q0 58 79 78l115 29l68 393l-275 649l-49 19q-72 29 -72 78zM762 1573q0 32 31 59l225 185q21 19 49 22q41 3 73 -28t34 -72q0 -57 -52 -84l-258 -135q-22 -11 -37 -11q-28 0 -46.5 19t-18.5 45z" />
<glyph unicode="&#xde;" horiz-adv-x="1148" d="M-14 61q0 59 75 78l109 29l180 1042l-86 23q-74 22 -74 74q0 31 21 51t55 20h430q68 0 68 -57q0 -31 -20 -51.5t-72 -34.5l-94 -25l-15 -86h146q216 0 321 -84t105 -231q0 -108 -41.5 -202t-117 -162.5t-189 -108t-250.5 -39.5h-117l-23 -129l95 -27q36 -12 50.5 -27 t14.5 -40q0 -33 -22.5 -53.5t-61.5 -20.5h-418q-69 0 -69 61zM444 451h125q149 0 236.5 87.5t87.5 235.5q0 189 -234 189h-127z" />
<glyph unicode="&#xdf;" horiz-adv-x="1243" d="M-315 -342q0 49 29.5 76.5t72.5 27.5q18 0 34.5 -14.5t28.5 -31.5t35 -31.5t52 -14.5q110 0 145 203l168 971l-94 18q-54 9 -54 53q0 61 80 86l99 19l8 51q32 202 171.5 313t364.5 111q157 0 245.5 -70t88.5 -172q0 -64 -22.5 -120t-56 -93.5t-73 -75t-73 -66.5 t-56 -64.5t-22.5 -71.5q0 -31 18 -58.5t47.5 -50t64.5 -45t70 -49.5t64.5 -58.5t47.5 -76.5t18 -98q0 -143 -116.5 -244.5t-305.5 -101.5q-121 0 -189.5 45.5t-68.5 109.5q0 45 27 74t71 29q18 0 36.5 -17t34.5 -37.5t50.5 -37.5t79.5 -17q75 0 118.5 41.5t43.5 108.5 q0 38 -25 72.5t-62 59t-81 55.5t-81 62t-62 80.5t-25 108.5q0 50 16 94.5t42 78t57.5 64t62.5 59t57 57t42 64t16 74.5q0 59 -40 93t-122 34q-94 0 -161 -60.5t-85 -168.5l-199 -1141q-40 -229 -150.5 -337.5t-275.5 -108.5q-98 0 -152 40.5t-54 98.5z" />
<glyph unicode="&#xe0;" horiz-adv-x="1179" d="M76 356q0 96 24 190t76.5 182.5t127 156.5t183.5 108.5t238 40.5q82 0 156 -17.5t116 -45.5q32 -23 43 -48t4 -65l-102 -600q-10 -59 4 -80.5t45 -21.5q18 0 41 7t31 7q45 0 45 -49q0 -53 -62.5 -92t-150.5 -39q-81 0 -124 44t-40 124l-4 2q-4 -7 -12.5 -19.5t-38 -43.5 t-64 -54.5t-92 -43t-119.5 -19.5q-149 0 -237 98t-88 278zM307 391q0 -120 47.5 -182t122.5 -62q41 0 81.5 15t70 36.5t53 43t35.5 36.5l12 15l94 547q-5 4 -15.5 9.5t-48 15t-81.5 9.5q-93 0 -166 -42.5t-116.5 -113t-66 -154t-22.5 -173.5zM492 1419q0 42 38 76.5t82 34.5 q45 0 68 -41l129 -242q12 -24 12 -39q0 -29 -22.5 -48t-53.5 -19q-34 0 -53 24l-176 197q-24 27 -24 57z" />
<glyph unicode="&#xe1;" horiz-adv-x="1179" d="M76 356q0 96 24 190t76.5 182.5t127 156.5t183.5 108.5t238 40.5q82 0 156 -17.5t116 -45.5q32 -23 43 -48t4 -65l-102 -600q-10 -59 4 -80.5t45 -21.5q18 0 41 7t31 7q45 0 45 -49q0 -53 -62.5 -92t-150.5 -39q-81 0 -124 44t-40 124l-4 2q-4 -7 -12.5 -19.5t-38 -43.5 t-64 -54.5t-92 -43t-119.5 -19.5q-149 0 -237 98t-88 278zM307 391q0 -120 47.5 -182t122.5 -62q41 0 81.5 15t70 36.5t53 43t35.5 36.5l12 15l94 547q-5 4 -15.5 9.5t-48 15t-81.5 9.5q-93 0 -166 -42.5t-116.5 -113t-66 -154t-22.5 -173.5zM604 1212q0 25 21 52l182 215 q33 41 78 41q43 0 72.5 -32t29.5 -71q0 -42 -39 -71l-225 -177q-27 -20 -51 -20q-29 0 -48.5 18.5t-19.5 44.5z" />
<glyph unicode="&#xe2;" horiz-adv-x="1179" d="M76 356q0 96 24 190t76.5 182.5t127 156.5t183.5 108.5t238 40.5q82 0 156 -17.5t116 -45.5q32 -23 43 -48t4 -65l-102 -600q-10 -59 4 -80.5t45 -21.5q18 0 41 7t31 7q45 0 45 -49q0 -53 -62.5 -92t-150.5 -39q-81 0 -124 44t-40 124l-4 2q-4 -7 -12.5 -19.5t-38 -43.5 t-64 -54.5t-92 -43t-119.5 -19.5q-149 0 -237 98t-88 278zM307 391q0 -120 47.5 -182t122.5 -62q41 0 81.5 15t70 36.5t53 43t35.5 36.5l12 15l94 547q-5 4 -15.5 9.5t-48 15t-81.5 9.5q-93 0 -166 -42.5t-116.5 -113t-66 -154t-22.5 -173.5zM459 1204q0 30 26 56l226 215 q44 38 82 38q46 0 73 -38l158 -215q18 -24 18 -50q0 -29 -20.5 -48t-50.5 -19q-34 0 -56 22l-151 142l-201 -140q-27 -18 -47 -18q-25 0 -41 16t-16 39z" />
<glyph unicode="&#xe3;" horiz-adv-x="1179" d="M76 356q0 96 24 190t76.5 182.5t127 156.5t183.5 108.5t238 40.5q82 0 156 -17.5t116 -45.5q32 -23 43 -48t4 -65l-102 -600q-10 -59 4 -80.5t45 -21.5q18 0 41 7t31 7q45 0 45 -49q0 -53 -62.5 -92t-150.5 -39q-81 0 -124 44t-40 124l-4 2q-4 -7 -12.5 -19.5t-38 -43.5 t-64 -54.5t-92 -43t-119.5 -19.5q-149 0 -237 98t-88 278zM307 391q0 -120 47.5 -182t122.5 -62q41 0 81.5 15t70 36.5t53 43t35.5 36.5l12 15l94 547q-5 4 -15.5 9.5t-48 15t-81.5 9.5q-93 0 -166 -42.5t-116.5 -113t-66 -154t-22.5 -173.5zM381 1253q0 60 82 123.5 t172 63.5q39 0 75.5 -15t59.5 -33.5t51 -33.5t53 -15q31 0 59 20.5t52.5 41t46.5 20.5q60 0 60 -59t-82 -122.5t-170 -63.5q-41 0 -78 15t-59.5 33t-50.5 33t-54 15q-31 0 -59 -20.5t-52.5 -41t-46.5 -20.5q-28 0 -43.5 15.5t-15.5 43.5z" />
<glyph unicode="&#xe4;" horiz-adv-x="1179" d="M76 356q0 96 24 190t76.5 182.5t127 156.5t183.5 108.5t238 40.5q82 0 156 -17.5t116 -45.5q32 -23 43 -48t4 -65l-102 -600q-10 -59 4 -80.5t45 -21.5q18 0 41 7t31 7q45 0 45 -49q0 -53 -62.5 -92t-150.5 -39q-81 0 -124 44t-40 124l-4 2q-4 -7 -12.5 -19.5t-38 -43.5 t-64 -54.5t-92 -43t-119.5 -19.5q-149 0 -237 98t-88 278zM307 391q0 -120 47.5 -182t122.5 -62q41 0 81.5 15t70 36.5t53 43t35.5 36.5l12 15l94 547q-5 4 -15.5 9.5t-48 15t-81.5 9.5q-93 0 -166 -42.5t-116.5 -113t-66 -154t-22.5 -173.5zM408 1298q0 63 42 105.5 t105 42.5q55 0 92 -37t37 -92q0 -63 -42 -105.5t-105 -42.5q-55 0 -92 36.5t-37 92.5zM813 1298q0 63 42.5 105.5t105.5 42.5q55 0 90.5 -36.5t35.5 -92.5q0 -63 -41 -105.5t-104 -42.5q-56 0 -92.5 36.5t-36.5 92.5z" />
<glyph unicode="&#xe5;" horiz-adv-x="1179" d="M76 356q0 96 24 190t76.5 182.5t127 156.5t183.5 108.5t238 40.5q82 0 156 -17.5t116 -45.5q32 -23 43 -48t4 -65l-102 -600q-10 -59 4 -80.5t45 -21.5q18 0 41 7t31 7q45 0 45 -49q0 -53 -62.5 -92t-150.5 -39q-81 0 -124 44t-40 124l-4 2q-4 -7 -12.5 -19.5t-38 -43.5 t-64 -54.5t-92 -43t-119.5 -19.5q-149 0 -237 98t-88 278zM307 391q0 -120 47.5 -182t122.5 -62q41 0 81.5 15t70 36.5t53 43t35.5 36.5l12 15l94 547q-5 4 -15.5 9.5t-48 15t-81.5 9.5q-93 0 -166 -42.5t-116.5 -113t-66 -154t-22.5 -173.5zM483 1339q0 103 78 173.5 t195 70.5q114 0 181 -59.5t67 -159.5q0 -105 -78 -175.5t-195 -70.5q-114 0 -181 60t-67 161zM631 1352q0 -55 30.5 -87t81.5 -32q50 0 81.5 32.5t31.5 86.5t-31 86t-82 32q-50 0 -81 -33t-31 -85z" />
<glyph unicode="&#xe6;" horiz-adv-x="1607" d="M43 240q0 134 120 222.5t357 88.5q44 0 86.5 -3.5t63.5 -7.5l20 -3l17 90q23 130 -15.5 184.5t-148.5 54.5q-71 0 -131 -13t-96.5 -25.5t-51.5 -12.5q-57 0 -57 59q0 40 39 68q58 39 153.5 64.5t210.5 25.5q255 0 291 -147q140 149 359 149q146 0 224.5 -70t78.5 -182 q0 -176 -174.5 -273.5t-487.5 -80.5q-12 -283 242 -283q63 0 114.5 11t84 22.5t49.5 11.5q24 0 37.5 -13.5t13.5 -37.5q0 -36 -31 -67q-39 -36 -128.5 -64t-207.5 -28q-247 0 -352 165q-5 -7 -15 -18t-45.5 -39.5t-74.5 -50t-102 -39.5t-130 -18q-147 0 -230 73t-83 187z M279 272q0 -58 38 -91.5t111 -33.5q42 0 83 11t70 26.5t52 31.5t34 27l11 11q-1 8 -2.5 22t-3.5 55.5t2 71.5q-60 15 -154 15q-125 0 -183 -40t-58 -106zM915 569q416 -20 416 191q0 54 -32.5 84t-94.5 30q-94 0 -176.5 -84t-112.5 -221z" />
<glyph unicode="&#xe7;" horiz-adv-x="909" d="M76 365q0 147 47 273t127 212.5t187 135t225 48.5q113 0 179 -45.5t66 -111.5q0 -50 -29 -79.5t-73 -29.5q-19 0 -38 17t-34.5 37.5t-48 37.5t-74.5 17q-54 0 -106.5 -30.5t-96.5 -86t-71 -145t-27 -197.5q0 -136 62.5 -204.5t167.5 -68.5q61 0 128 24t78 24 q23 0 36.5 -14.5t13.5 -37.5q0 -38 -29 -67q-39 -37 -115 -65t-164 -29l-28 -68q73 -8 117.5 -48.5t44.5 -107.5q0 -106 -100 -177t-261 -71q-113 0 -113 68q0 25 17 41t45 16q12 0 31.5 -1t29.5 -1q62 0 93.5 23t31.5 61q0 26 -19.5 41t-58.5 15q-48 0 -26 53l69 166 q-134 26 -209 125.5t-75 249.5z" />
<glyph unicode="&#xe8;" horiz-adv-x="1017" d="M76 365q0 148 46.5 274t126.5 212t189 134.5t232 48.5q145 0 224 -70.5t79 -181.5q0 -176 -175 -273.5t-489 -80.5q-9 -285 244 -285q63 0 114 11.5t83.5 23.5t50.5 12q24 0 37.5 -13.5t13.5 -37.5q0 -38 -33 -67q-38 -37 -127 -64.5t-207 -27.5q-195 0 -302 102.5 t-107 282.5zM326 569q413 -20 413 191q0 53 -32 83.5t-93 30.5q-95 0 -177 -84.5t-111 -220.5zM418 1419q0 42 38.5 76.5t82.5 34.5t67 -41l129 -242q13 -26 13 -39q0 -29 -22.5 -48t-53.5 -19q-35 0 -54 24l-176 197q-24 27 -24 57z" />
<glyph unicode="&#xe9;" horiz-adv-x="1017" d="M76 365q0 148 46.5 274t126.5 212t189 134.5t232 48.5q145 0 224 -70.5t79 -181.5q0 -176 -175 -273.5t-489 -80.5q-9 -285 244 -285q63 0 114 11.5t83.5 23.5t50.5 12q24 0 37.5 -13.5t13.5 -37.5q0 -38 -33 -67q-38 -37 -127 -64.5t-207 -27.5q-195 0 -302 102.5 t-107 282.5zM326 569q413 -20 413 191q0 53 -32 83.5t-93 30.5q-95 0 -177 -84.5t-111 -220.5zM537 1212q0 26 20 52l182 215q33 41 78 41q43 0 73 -32t30 -71q0 -42 -39 -71l-226 -177q-27 -20 -51 -20q-29 0 -48 18t-19 45z" />
<glyph unicode="&#xea;" horiz-adv-x="1017" d="M76 365q0 148 46.5 274t126.5 212t189 134.5t232 48.5q145 0 224 -70.5t79 -181.5q0 -176 -175 -273.5t-489 -80.5q-9 -285 244 -285q63 0 114 11.5t83.5 23.5t50.5 12q24 0 37.5 -13.5t13.5 -37.5q0 -38 -33 -67q-38 -37 -127 -64.5t-207 -27.5q-195 0 -302 102.5 t-107 282.5zM326 569q413 -20 413 191q0 53 -32 83.5t-93 30.5q-95 0 -177 -84.5t-111 -220.5zM385 1204q0 29 27 56l225 215q44 38 82 38q47 0 74 -38l157 -215q19 -25 19 -50q0 -29 -21 -48t-51 -19q-33 0 -55 22l-152 142l-201 -140q-27 -18 -47 -18q-25 0 -41 16t-16 39 z" />
<glyph unicode="&#xeb;" horiz-adv-x="1017" d="M76 365q0 148 46.5 274t126.5 212t189 134.5t232 48.5q145 0 224 -70.5t79 -181.5q0 -176 -175 -273.5t-489 -80.5q-9 -285 244 -285q63 0 114 11.5t83.5 23.5t50.5 12q24 0 37.5 -13.5t13.5 -37.5q0 -38 -33 -67q-38 -37 -127 -64.5t-207 -27.5q-195 0 -302 102.5 t-107 282.5zM326 569q413 -20 413 191q0 53 -32 83.5t-93 30.5q-95 0 -177 -84.5t-111 -220.5zM352 1298q0 63 42.5 105.5t105.5 42.5q56 0 92.5 -37t36.5 -92q0 -63 -42.5 -105.5t-105.5 -42.5q-55 0 -92 36.5t-37 92.5zM758 1298q0 63 42 105.5t105 42.5q55 0 91 -36.5 t36 -92.5q0 -63 -41 -105.5t-104 -42.5q-55 0 -92 36.5t-37 92.5z" />
<glyph unicode="&#xec;" horiz-adv-x="604" d="M100 915q0 61 78 86q87 23 172 23q77 0 107 -32t18 -103l-108 -631q-17 -102 47 -102q19 0 41 7t32 7q45 0 45 -49q0 -53 -63.5 -92t-157.5 -39q-212 0 -170 233l105 621l-92 18q-54 9 -54 53zM229 1419q0 42 38.5 76.5t82.5 34.5q45 0 68 -41l129 -242q12 -24 12 -39 q0 -29 -22.5 -48t-53.5 -19q-34 0 -53 24l-176 197q-25 28 -25 57z" />
<glyph unicode="&#xed;" horiz-adv-x="604" d="M100 915q0 61 78 86q87 23 172 23q77 0 107 -32t18 -103l-108 -631q-17 -102 47 -102q19 0 41 7t32 7q45 0 45 -49q0 -53 -63.5 -92t-157.5 -39q-212 0 -170 233l105 621l-92 18q-54 9 -54 53zM252 1212q0 26 20 52l183 215q33 41 77 41q43 0 73 -32t30 -71 q0 -42 -39 -71l-225 -177q-27 -20 -52 -20q-29 0 -48 18t-19 45z" />
<glyph unicode="&#xee;" horiz-adv-x="604" d="M100 915q0 61 78 86q87 23 172 23q77 0 107 -32t18 -103l-108 -631q-17 -102 47 -102q19 0 41 7t32 7q45 0 45 -49q0 -53 -63.5 -92t-157.5 -39q-212 0 -170 233l105 621l-92 18q-54 9 -54 53zM127 1206q0 25 29 54l217 215q38 38 82 38q48 0 73 -38l150 -213 q18 -24 18 -52t-21 -47.5t-50 -19.5q-33 0 -58 22l-143 142l-193 -140q-24 -16 -47 -16q-25 0 -41 15t-16 40z" />
<glyph unicode="&#xef;" horiz-adv-x="604" d="M94 1298q0 62 41 103t103 41q54 0 88 -35t34 -90q0 -61 -40.5 -102t-100.5 -41q-54 0 -89.5 34.5t-35.5 89.5zM100 915q0 61 78 86q87 23 172 23q77 0 107 -32t18 -103l-108 -631q-17 -102 47 -102q19 0 41 7t32 7q45 0 45 -49q0 -53 -63.5 -92t-157.5 -39 q-212 0 -170 233l105 621l-92 18q-54 9 -54 53zM471 1298q0 62 41 103t102 41q54 0 88.5 -35t34.5 -90q0 -61 -40.5 -102t-100.5 -41q-54 0 -89.5 34.5t-35.5 89.5z" />
<glyph unicode="&#xf0;" horiz-adv-x="1140" d="M76 365q0 143 48.5 266t131.5 208t196.5 133t241.5 48q35 0 67 -5t47 -9l15 -5l4 5q-30 144 -106 223l-180 -125q-21 -14 -47 -14q-28 0 -47 19t-19 46q0 37 35 59l141 99q-69 32 -151 37q-60 6 -60 55q0 39 37.5 64.5t110.5 25.5q133 0 237 -63l166 114q21 15 43 15 q28 1 48 -19t20 -47q0 -38 -33 -59l-133 -93q83 -89 134.5 -236t51.5 -323q0 -158 -31.5 -290t-87.5 -226t-132 -159.5t-166 -97t-189 -31.5q-182 0 -287.5 102t-105.5 283zM307 397q0 -125 56 -190.5t145 -65.5q47 0 91 15.5t91 59t80.5 111.5t55.5 182t22 261v47 q-6 5 -18 12.5t-58.5 20t-103.5 12.5q-157 0 -259 -131.5t-102 -333.5z" />
<glyph unicode="&#xf1;" horiz-adv-x="1232" d="M100 915q0 61 78 86q87 23 172 23q60 0 85.5 -20.5t25.5 -61.5q0 -16 -4.5 -37.5t-9.5 -34.5l-5 -14l4 -2q4 7 12.5 19t39 43t65.5 54.5t94.5 42.5t124.5 19q138 0 213.5 -76.5t75.5 -218.5q0 -77 -40 -280t-40 -240q0 -61 51 -61q19 0 41.5 7t32.5 7q45 0 45 -49 q0 -53 -63.5 -92t-155.5 -39q-176 0 -176 164q1 53 36.5 254.5t35.5 271.5q0 97 -36 140.5t-106 43.5q-40 0 -80.5 -14.5t-70 -36t-53.5 -42.5t-36 -35l-12 -15l-106 -629q-19 -102 -131 -102q-106 0 -90 100l129 754l-92 18q-54 9 -54 53zM362 1253q0 60 82 123.5t172 63.5 q39 0 76 -15t59.5 -33.5t51 -33.5t53.5 -15q31 0 59 20.5t52.5 41t46.5 20.5q59 0 59 -59t-82 -122.5t-170 -63.5q-41 0 -77.5 15t-59 33t-50.5 33t-54 15q-31 0 -59 -20.5t-52.5 -41t-46.5 -20.5q-28 0 -44 15.5t-16 43.5z" />
<glyph unicode="&#xf2;" horiz-adv-x="1161" d="M76 367q0 143 47.5 268.5t128.5 212t190.5 136.5t229.5 50q196 0 304.5 -104t108.5 -283q0 -143 -48 -268.5t-129 -212t-190.5 -136.5t-230.5 -50q-194 0 -302.5 104t-108.5 283zM307 399q0 -123 59 -190.5t154 -67.5q106 0 183.5 68.5t114 173.5t36.5 231 q0 123 -59 190.5t-156 67.5q-79 0 -143.5 -39.5t-105 -106.5t-62 -151t-21.5 -176zM498 1419q0 42 38 76.5t82 34.5q45 0 68 -41l129 -242q12 -24 12 -39q0 -29 -22 -48t-53 -19q-35 0 -54 24l-176 197q-24 27 -24 57z" />
<glyph unicode="&#xf3;" horiz-adv-x="1161" d="M76 367q0 143 47.5 268.5t128.5 212t190.5 136.5t229.5 50q196 0 304.5 -104t108.5 -283q0 -143 -48 -268.5t-129 -212t-190.5 -136.5t-230.5 -50q-194 0 -302.5 104t-108.5 283zM307 399q0 -123 59 -190.5t154 -67.5q106 0 183.5 68.5t114 173.5t36.5 231 q0 123 -59 190.5t-156 67.5q-79 0 -143.5 -39.5t-105 -106.5t-62 -151t-21.5 -176zM547 1212q0 26 20 52l183 215q33 41 77 41q43 0 73 -32t30 -71q0 -42 -39 -71l-225 -177q-27 -20 -52 -20q-29 0 -48 18t-19 45z" />
<glyph unicode="&#xf4;" horiz-adv-x="1161" d="M76 367q0 143 47.5 268.5t128.5 212t190.5 136.5t229.5 50q196 0 304.5 -104t108.5 -283q0 -143 -48 -268.5t-129 -212t-190.5 -136.5t-230.5 -50q-194 0 -302.5 104t-108.5 283zM307 399q0 -123 59 -190.5t154 -67.5q106 0 183.5 68.5t114 173.5t36.5 231 q0 123 -59 190.5t-156 67.5q-79 0 -143.5 -39.5t-105 -106.5t-62 -151t-21.5 -176zM436 1204q0 29 27 56l225 215q44 38 82 38q47 0 74 -38l157 -215q19 -25 19 -50q0 -29 -21 -48t-51 -19q-33 0 -55 22l-152 142l-200 -140q-27 -18 -47 -18q-25 0 -41.5 16t-16.5 39z" />
<glyph unicode="&#xf5;" horiz-adv-x="1161" d="M76 367q0 143 47.5 268.5t128.5 212t190.5 136.5t229.5 50q196 0 304.5 -104t108.5 -283q0 -143 -48 -268.5t-129 -212t-190.5 -136.5t-230.5 -50q-194 0 -302.5 104t-108.5 283zM307 399q0 -123 59 -190.5t154 -67.5q106 0 183.5 68.5t114 173.5t36.5 231 q0 123 -59 190.5t-156 67.5q-79 0 -143.5 -39.5t-105 -106.5t-62 -151t-21.5 -176zM362 1253q0 60 82 123.5t172 63.5q39 0 76 -15t59.5 -33.5t51 -33.5t53.5 -15q31 0 59 20.5t52.5 41t46.5 20.5q59 0 59 -59t-82 -122.5t-170 -63.5q-41 0 -77.5 15t-59 33t-50.5 33t-54 15 q-31 0 -59 -20.5t-52.5 -41t-46.5 -20.5q-28 0 -44 15.5t-16 43.5z" />
<glyph unicode="&#xf6;" horiz-adv-x="1161" d="M76 367q0 143 47.5 268.5t128.5 212t190.5 136.5t229.5 50q196 0 304.5 -104t108.5 -283q0 -143 -48 -268.5t-129 -212t-190.5 -136.5t-230.5 -50q-194 0 -302.5 104t-108.5 283zM307 399q0 -123 59 -190.5t154 -67.5q106 0 183.5 68.5t114 173.5t36.5 231 q0 123 -59 190.5t-156 67.5q-79 0 -143.5 -39.5t-105 -106.5t-62 -151t-21.5 -176zM383 1298q0 63 42 105.5t105 42.5q56 0 92.5 -37t36.5 -92q0 -63 -42 -105.5t-105 -42.5q-56 0 -92.5 36.5t-36.5 92.5zM788 1298q0 63 42.5 105.5t105.5 42.5q55 0 91 -36.5t36 -92.5 q0 -63 -41 -105.5t-104 -42.5q-56 0 -93 37t-37 92z" />
<glyph unicode="&#xf7;" d="M121 567q0 45 25.5 71t70.5 26h698q74 0 74 -66q0 -44 -26 -70t-72 -26h-696q-74 0 -74 65zM377 248q0 54 36.5 90.5t90.5 36.5q49 0 81.5 -33.5t32.5 -81.5q0 -54 -36 -90.5t-90 -36.5q-48 0 -81.5 33t-33.5 82zM492 905q0 54 36 90.5t90 36.5q48 0 81.5 -32.5 t33.5 -79.5q0 -55 -36.5 -92t-90.5 -37q-49 0 -81.5 33t-32.5 81z" />
<glyph unicode="&#xf8;" horiz-adv-x="1163" d="M41 -106q0 26 18 53l113 147q-96 107 -96 273q0 143 48 268.5t129 212t190.5 136.5t230.5 50q110 0 186 -35l121 160q30 37 68 37q31 0 54 -22.5t23 -51.5q0 -27 -18 -51l-119 -156q98 -103 98 -268q0 -143 -48 -268.5t-129 -212t-190.5 -136.5t-230.5 -50 q-117 0 -186 32l-117 -153q-29 -37 -67 -37q-30 0 -54 21.5t-24 50.5zM299 399q0 -61 20 -114l431 565q-50 24 -109 24q-106 0 -185.5 -68.5t-118 -175t-38.5 -231.5zM416 164q45 -25 106 -25q106 0 185.5 68t118 174.5t38.5 232.5q0 64 -20 115z" />
<glyph unicode="&#xf9;" horiz-adv-x="1230" d="M96 915q0 61 78 86q87 23 172 23q77 0 107 -32t18 -103q-11 -64 -37.5 -202.5t-37.5 -216t-11 -136.5q0 -187 143 -187q40 0 80.5 15t70 36.5t53.5 43t36 36.5l12 15l107 627q19 102 131 102q106 0 90 -98l-115 -666q-17 -102 47 -102q19 0 41.5 7t32.5 7q45 0 45 -49 q0 -53 -62.5 -92t-150.5 -39q-83 0 -126 44t-38 124l-4 2q-4 -7 -12.5 -19.5t-39 -43.5t-65.5 -54.5t-94.5 -43t-124.5 -19.5q-138 0 -213 77t-75 219q0 34 4.5 79.5t9.5 83t16 101.5t17.5 96.5t21 108t19.5 99.5l-92 18q-54 9 -54 53zM463 1419q0 42 38.5 76.5t82.5 34.5 t67 -41l129 -242q13 -26 13 -39q0 -29 -22.5 -48t-53.5 -19q-34 0 -53 24l-177 197q-24 27 -24 57z" />
<glyph unicode="&#xfa;" horiz-adv-x="1230" d="M96 915q0 61 78 86q87 23 172 23q77 0 107 -32t18 -103q-11 -64 -37.5 -202.5t-37.5 -216t-11 -136.5q0 -187 143 -187q40 0 80.5 15t70 36.5t53.5 43t36 36.5l12 15l107 627q19 102 131 102q106 0 90 -98l-115 -666q-17 -102 47 -102q19 0 41.5 7t32.5 7q45 0 45 -49 q0 -53 -62.5 -92t-150.5 -39q-83 0 -126 44t-38 124l-4 2q-4 -7 -12.5 -19.5t-39 -43.5t-65.5 -54.5t-94.5 -43t-124.5 -19.5q-138 0 -213 77t-75 219q0 34 4.5 79.5t9.5 83t16 101.5t17.5 96.5t21 108t19.5 99.5l-92 18q-54 9 -54 53zM618 1212q0 25 21 52l182 215 q33 41 78 41q43 0 72.5 -32t29.5 -71q0 -43 -38 -71l-226 -177q-27 -20 -51 -20q-29 0 -48.5 18.5t-19.5 44.5z" />
<glyph unicode="&#xfb;" horiz-adv-x="1230" d="M96 915q0 61 78 86q87 23 172 23q77 0 107 -32t18 -103q-11 -64 -37.5 -202.5t-37.5 -216t-11 -136.5q0 -187 143 -187q40 0 80.5 15t70 36.5t53.5 43t36 36.5l12 15l107 627q19 102 131 102q106 0 90 -98l-115 -666q-17 -102 47 -102q19 0 41.5 7t32.5 7q45 0 45 -49 q0 -53 -62.5 -92t-150.5 -39q-83 0 -126 44t-38 124l-4 2q-4 -7 -12.5 -19.5t-39 -43.5t-65.5 -54.5t-94.5 -43t-124.5 -19.5q-138 0 -213 77t-75 219q0 34 4.5 79.5t9.5 83t16 101.5t17.5 96.5t21 108t19.5 99.5l-92 18q-54 9 -54 53zM432 1204q0 29 27 56l225 215 q44 38 82 38q47 0 74 -38l157 -215q19 -25 19 -50q0 -29 -21 -48t-51 -19q-33 0 -55 22l-152 142l-200 -140q-27 -18 -48 -18q-25 0 -41 16t-16 39z" />
<glyph unicode="&#xfc;" horiz-adv-x="1230" d="M96 915q0 61 78 86q87 23 172 23q77 0 107 -32t18 -103q-11 -64 -37.5 -202.5t-37.5 -216t-11 -136.5q0 -187 143 -187q40 0 80.5 15t70 36.5t53.5 43t36 36.5l12 15l107 627q19 102 131 102q106 0 90 -98l-115 -666q-17 -102 47 -102q19 0 41.5 7t32.5 7q45 0 45 -49 q0 -53 -62.5 -92t-150.5 -39q-83 0 -126 44t-38 124l-4 2q-4 -7 -12.5 -19.5t-39 -43.5t-65.5 -54.5t-94.5 -43t-124.5 -19.5q-138 0 -213 77t-75 219q0 34 4.5 79.5t9.5 83t16 101.5t17.5 96.5t21 108t19.5 99.5l-92 18q-54 9 -54 53zM391 1298q0 63 42.5 105.5t105.5 42.5 q55 0 92 -37t37 -92q0 -63 -42.5 -105.5t-105.5 -42.5q-56 0 -92.5 36.5t-36.5 92.5zM797 1298q0 63 42 105.5t105 42.5q55 0 91 -36.5t36 -92.5q0 -63 -41 -105.5t-104 -42.5q-56 0 -92.5 36.5t-36.5 92.5z" />
<glyph unicode="&#xfd;" horiz-adv-x="1124" d="M-180 -365q0 44 25.5 71.5t62.5 27.5q20 0 56 -11.5t67 -11.5q169 0 336 183q-103 594 -199 950l-74 16q-53 12 -53 60q0 55 76 79q80 25 145 25q54 0 80.5 -22.5t38.5 -73.5q105 -443 160 -842h4q291 383 291 680q0 53 -18.5 74.5t-61.5 21.5q-62 0 -62 62q0 40 48.5 69 t127.5 29q92 0 142.5 -53.5t50.5 -153.5q0 -191 -139 -446.5t-404 -538.5q-288 -311 -545 -311q-78 0 -116.5 31.5t-38.5 84.5zM506 1212q0 26 20 52l183 215q33 41 77 41q43 0 73 -32t30 -71q0 -42 -39 -71l-225 -177q-27 -20 -52 -20q-29 0 -48 18t-19 45z" />
<glyph unicode="&#xfe;" horiz-adv-x="1142" d="M8 -356l287 1661l-94 18q-54 9 -54 53q0 61 80 86q95 25 172 25q67 0 97 -24t30 -74q0 -27 -20 -147.5t-39 -213.5q-8 -39 -43 -156l4 -2q4 7 12 17.5t37 38.5t62 49.5t87.5 39t114.5 17.5q148 0 237 -98t89 -277q0 -96 -24 -190t-76.5 -182.5t-127 -156t-183.5 -108 t-238 -40.5q-33 0 -65.5 4t-48.5 8l-17 4l-4 -4q-6 -52 -17 -117l-28 -176q50 -11 94 -31q28 -11 40.5 -24.5t12.5 -36.5q0 -66 -80 -74q-106 -16 -192 -16q-125 0 -105 127zM319 174q5 -4 15.5 -10t47.5 -15.5t81 -9.5q75 0 137.5 28t105 75.5t72 110t43 130.5t13.5 138 q0 122 -47 182.5t-123 60.5q-40 0 -80.5 -14.5t-69.5 -36t-52.5 -42.5t-35.5 -35l-12 -15z" />
<glyph unicode="&#xff;" horiz-adv-x="1124" d="M-180 -365q0 44 25.5 71.5t62.5 27.5q20 0 56 -11.5t67 -11.5q169 0 336 183q-103 594 -199 950l-74 16q-53 12 -53 60q0 55 76 79q80 25 145 25q54 0 80.5 -22.5t38.5 -73.5q105 -443 160 -842h4q291 383 291 680q0 53 -18.5 74.5t-61.5 21.5q-62 0 -62 62q0 40 48.5 69 t127.5 29q92 0 142.5 -53.5t50.5 -153.5q0 -191 -139 -446.5t-404 -538.5q-288 -311 -545 -311q-78 0 -116.5 31.5t-38.5 84.5zM307 1298q0 63 42.5 105.5t105.5 42.5q55 0 92 -37t37 -92q0 -63 -42.5 -105.5t-105.5 -42.5q-56 0 -92.5 36.5t-36.5 92.5zM713 1298 q0 63 42 105.5t105 42.5q55 0 91 -36.5t36 -92.5q0 -63 -41 -105.5t-104 -42.5q-56 0 -92.5 36.5t-36.5 92.5z" />
<glyph unicode="&#x152;" horiz-adv-x="1892" d="M106 496q0 177 56.5 340t158 288t255.5 200t337 75q58 0 113 -5.5t81 -10.5l26 -5h682q90 0 90 -73q0 -15 -15 -117q-7 -54 -16 -101q-15 -65 -76 -65q-32 0 -49 17t-23 59l-12 119h-414l-75 -443h319l33 70q19 36 37 50.5t45 14.5q29 0 44 -18t9 -53l-47 -279 q-15 -74 -74 -74q-28 0 -42.5 17t-22.5 57l-10 64h-318l-80 -461h436l60 135q19 37 39 53.5t49 16.5q57 0 57 -58q0 -41 -20 -151q-13 -60 -22 -86.5t-23 -40.5q-31 -31 -95 -31h-755q-86 -20 -215 -20q-246 0 -384.5 136.5t-138.5 379.5zM350 528q0 -188 87 -284.5 t245 -96.5q56 0 110 9.5t80 18.5l25 9l174 1012q-7 4 -21.5 10t-66 15.5t-111.5 9.5q-115 0 -214.5 -59t-166 -157t-104 -224.5t-37.5 -262.5z" />
<glyph unicode="&#x153;" horiz-adv-x="1777" d="M76 367q0 143 47.5 268.5t128.5 212t190.5 136.5t229.5 50q133 0 219 -49t125 -133q69 81 178.5 131.5t235.5 50.5q145 0 224 -70.5t79 -181.5q0 -176 -175 -273.5t-489 -80.5q-9 -285 244 -285q63 0 114 11.5t83.5 23.5t50.5 12q24 0 37.5 -13.5t13.5 -37.5 q0 -38 -33 -67q-38 -37 -127 -64.5t-207 -27.5q-262 0 -346 180q-173 -180 -414 -180q-193 0 -301 104t-108 283zM307 399q0 -123 59 -190.5t154 -67.5q106 0 183.5 68.5t114 173.5t36.5 231q0 123 -59 190.5t-156 67.5q-79 0 -143.5 -39.5t-105 -106.5t-62 -151t-21.5 -176 zM1085 569q414 -20 414 191q0 53 -32 83.5t-93 30.5q-95 0 -177.5 -84.5t-111.5 -220.5z" />
<glyph unicode="&#x178;" horiz-adv-x="1294" d="M147 1307q0 31 21 51t55 20h387q68 0 68 -57q0 -31 -19 -52t-73 -40l-62 -19l187 -465h4l336 465l-54 21q-35 16 -52 33.5t-17 42.5q0 31 20.5 51t55.5 20h344q69 0 69 -57q0 -31 -19 -51.5t-71 -38.5l-57 -21l-500 -649l-65 -393l100 -27q36 -10 51.5 -26t15.5 -41 q0 -33 -22.5 -53.5t-61.5 -20.5h-438q-69 0 -69 61q0 58 79 78l115 29l68 393l-275 649l-49 19q-72 29 -72 78zM524 1642q0 63 42 105.5t106 42.5q57 0 93 -36.5t36 -94.5q0 -63 -41.5 -105.5t-104.5 -42.5q-58 0 -94.5 37t-36.5 94zM946 1642q0 63 42.5 105.5t105.5 42.5 q58 0 94.5 -36t36.5 -95q0 -63 -42 -105.5t-106 -42.5q-58 0 -94.5 37t-36.5 94z" />
<glyph unicode="&#x2c6;" horiz-adv-x="1003" d="M336 1204q0 30 26 56l226 215q44 38 82 38q46 0 73 -38l158 -215q19 -25 19 -50q0 -29 -21 -48t-51 -19q-33 0 -55 22l-152 142l-201 -140q-27 -18 -47 -18q-25 0 -41 16t-16 39z" />
<glyph unicode="&#x2dc;" horiz-adv-x="1003" d="M283 1253q0 60 82 123.5t172 63.5q39 0 75.5 -15t59.5 -33.5t51 -33.5t53 -15q31 0 59 20.5t52.5 41t46.5 20.5q59 0 59 -59t-82 -122.5t-170 -63.5q-41 0 -77.5 15t-59 33t-50.5 33t-54 15q-31 0 -59 -20.5t-52.5 -41t-46.5 -20.5q-28 0 -43.5 15.5t-15.5 43.5z" />
<glyph unicode="&#x2000;" horiz-adv-x="979" />
<glyph unicode="&#x2001;" horiz-adv-x="1958" />
<glyph unicode="&#x2002;" horiz-adv-x="979" />
<glyph unicode="&#x2003;" horiz-adv-x="1958" />
<glyph unicode="&#x2004;" horiz-adv-x="652" />
<glyph unicode="&#x2005;" horiz-adv-x="489" />
<glyph unicode="&#x2006;" horiz-adv-x="326" />
<glyph unicode="&#x2007;" horiz-adv-x="326" />
<glyph unicode="&#x2008;" horiz-adv-x="244" />
<glyph unicode="&#x2009;" horiz-adv-x="391" />
<glyph unicode="&#x200a;" horiz-adv-x="108" />
<glyph unicode="&#x2010;" horiz-adv-x="925" d="M137 524q0 45 29 74t74 29h481q78 0 78 -68q0 -45 -28.5 -73.5t-74.5 -28.5h-481q-78 0 -78 67z" />
<glyph unicode="&#x2011;" horiz-adv-x="925" d="M137 524q0 45 29 74t74 29h481q78 0 78 -68q0 -45 -28.5 -73.5t-74.5 -28.5h-481q-78 0 -78 67z" />
<glyph unicode="&#x2012;" horiz-adv-x="925" d="M137 524q0 45 29 74t74 29h481q78 0 78 -68q0 -45 -28.5 -73.5t-74.5 -28.5h-481q-78 0 -78 67z" />
<glyph unicode="&#x2013;" d="M10 524q0 45 28 74t75 29h893q77 0 77 -68q0 -45 -27.5 -73.5t-72.5 -28.5h-895q-78 0 -78 67z" />
<glyph unicode="&#x2014;" horiz-adv-x="2048" d="M174 524q0 45 27.5 74t72.5 29h1512q78 0 78 -68q0 -45 -28 -73.5t-73 -28.5h-1511q-78 0 -78 67z" />
<glyph unicode="&#x2018;" horiz-adv-x="573" d="M229 1044q0 60 31.5 130.5t78 129t95.5 105t88 68.5q37 22 74 22q55 0 55 -49q0 -16 -10.5 -32t-30 -35t-41.5 -43t-49.5 -66t-50.5 -94q59 -41 59 -125q0 -72 -45 -117t-112 -45q-65 0 -103.5 40t-38.5 111z" />
<glyph unicode="&#x2019;" horiz-adv-x="573" d="M156 938q0 19 17.5 41t42.5 44.5t60.5 72t63.5 112.5q-61 40 -61 125q0 72 45 117t112 45q65 0 103.5 -40.5t38.5 -111.5q0 -60 -31.5 -130.5t-78 -129t-95.5 -104.5t-88 -68q-37 -22 -74 -22q-55 0 -55 49z" />
<glyph unicode="&#x201a;" horiz-adv-x="573" d="M-53 -272q0 20 17.5 42t42.5 44.5t60.5 71.5t63.5 112q-61 40 -61 125q0 72 45 117t112 45q65 0 103.5 -40.5t38.5 -111.5q0 -60 -31.5 -130.5t-78 -129t-95.5 -104.5t-88 -68q-39 -23 -74 -23q-26 0 -40.5 13.5t-14.5 36.5z" />
<glyph unicode="&#x201c;" horiz-adv-x="1017" d="M229 1044q0 60 31.5 130.5t78 129.5t95.5 105.5t88 69.5q42 22 74 22q55 0 55 -49q0 -20 -17.5 -42.5t-42 -45t-60 -71.5t-62.5 -111q59 -45 59 -125q0 -72 -45 -117t-112 -45q-65 0 -103.5 39.5t-38.5 109.5zM674 1044q0 60 31.5 130.5t78 129.5t96 105.5t89.5 69.5 q42 22 71 22q26 0 41 -13t15 -36q0 -20 -17.5 -42.5t-42 -45t-60 -71.5t-63.5 -111q62 -47 62 -125q0 -72 -45.5 -117t-112.5 -45q-66 0 -104.5 39.5t-38.5 109.5z" />
<glyph unicode="&#x201d;" horiz-adv-x="1017" d="M156 938q0 19 17.5 41t42.5 44.5t60.5 72t63.5 112.5q-61 40 -61 125q0 72 45 117t112 45q65 0 103.5 -40.5t38.5 -111.5q0 -60 -31.5 -130.5t-78 -129t-95.5 -104.5t-88 -68q-37 -22 -74 -22q-55 0 -55 49zM602 938q0 16 10.5 32t29.5 35t41 43t50 66t51 94 q-61 40 -61 125q0 72 45.5 117t112.5 45q65 0 104 -40.5t39 -111.5q0 -60 -31.5 -130.5t-78.5 -129t-96.5 -104.5t-88.5 -68q-37 -22 -74 -22q-53 0 -53 49z" />
<glyph unicode="&#x201e;" horiz-adv-x="1017" d="M-53 -272q0 20 17.5 42t42.5 44.5t60.5 71.5t63.5 112q-61 40 -61 125q0 72 45 117t112 45q65 0 103.5 -40.5t38.5 -111.5q0 -60 -31.5 -130.5t-78 -129t-95.5 -104.5t-88 -68q-39 -23 -74 -23q-26 0 -40.5 13.5t-14.5 36.5zM393 -272q0 20 17 42t41.5 44.5t60 71.5 t63.5 112q-61 40 -61 125q0 72 45.5 117t112.5 45q65 0 103 -40.5t38 -111.5q0 -60 -31.5 -130.5t-78 -129t-95.5 -104.5t-88 -68q-39 -23 -74 -23q-53 0 -53 50z" />
<glyph unicode="&#x2022;" horiz-adv-x="925" d="M233 694q0 118 78.5 196.5t196.5 78.5q112 0 183 -70.5t71 -183.5q0 -118 -79 -196.5t-196 -78.5q-113 0 -183.5 71t-70.5 183z" />
<glyph unicode="&#x2026;" horiz-adv-x="1677" d="M70 125q0 69 46 115.5t115 46.5q66 0 107 -40t41 -106q0 -69 -47 -115t-115 -46q-66 0 -106.5 39.5t-40.5 105.5zM618 125q0 69 46.5 115.5t115.5 46.5q66 0 107 -40t41 -106q0 -69 -46.5 -115t-115.5 -46q-66 0 -107 39.5t-41 105.5zM1169 125q0 69 45.5 115.5 t114.5 46.5q66 0 107 -40t41 -106q0 -69 -46.5 -115t-115.5 -46q-66 0 -106 39.5t-40 105.5z" />
<glyph unicode="&#x202f;" horiz-adv-x="391" />
<glyph unicode="&#x2039;" horiz-adv-x="710" d="M86 492q0 43 51 94q133 125 385 342q33 26 62 26q32 0 55 -23t23 -54q0 -33 -27 -64l-299 -315l182 -322q12 -24 12 -41q0 -35 -28 -58.5t-66 -23.5q-42 0 -71 37q-111 138 -254 338q-25 36 -25 64z" />
<glyph unicode="&#x203a;" horiz-adv-x="710" d="M49 129q0 32 25 64l299 317l-180 321q-13 23 -13 39q0 35 28 59.5t64 24.5q41 0 72 -36q123 -152 254 -340q27 -34 27 -62q0 -25 -12 -45t-42 -49q-136 -129 -383 -342q-31 -27 -63 -27t-54 23t-22 53z" />
<glyph unicode="&#x205f;" horiz-adv-x="489" />
<glyph unicode="&#x20ac;" horiz-adv-x="1224" d="M33 520q0 38 25 60t71 22h78q7 81 24 152h-77q-72 0 -72 61q0 37 25 59.5t73 22.5h96q102 240 287 370t420 130q190 0 244 -62q13 -19 14 -41.5t-12 -101.5q-10 -62 -23 -117q-14 -69 -71 -69q-60 0 -66 69l-12 146q-33 18 -115 18q-144 0 -260 -88t-184 -254h319 q70 0 70 -59q0 -38 -25 -61t-71 -23h-336q-18 -87 -21 -152h332q70 0 70 -59q0 -37 -24.5 -59.5t-72.5 -22.5h-305q18 -161 107 -237.5t229 -76.5q80 0 150.5 17.5t80.5 17.5q23 0 36.5 -14t13.5 -37q0 -38 -37 -65q-42 -35 -123 -59.5t-184 -24.5q-147 0 -255.5 49 t-175 158t-73.5 272h-101q-69 0 -69 59z" />
<glyph unicode="&#x2122;" horiz-adv-x="1810" d="M213 1186q0 23 12 84q12 72 31 88q20 20 57 20h473q56 0 56 -45q0 -11 -8 -71q-5 -35 -15 -72q-10 -43 -53 -43q-39 0 -47 45l-10 68h-95l-73 -443l32 -12q43 -18 43 -49q0 -25 -16.5 -40.5t-44.5 -15.5h-236q-24 0 -37.5 12t-13.5 33q0 39 54 58l43 14l73 443h-92 l-33 -68q-14 -26 -26 -35.5t-33 -9.5q-41 0 -41 39zM782 743q0 38 49 62l23 10l137 451l-20 6q-24 9 -33.5 21.5t-9.5 33.5q0 22 15.5 36.5t41.5 14.5h201q56 0 59 -49l35 -358l4 -117h2l43 117l162 358q21 49 78 49h194q49 0 49 -43q0 -22 -13.5 -35.5t-47.5 -27.5l-20 -6 l-23 -451l25 -10q32 -17 32 -51q0 -24 -17 -39t-44 -15h-184q-23 0 -37.5 12t-14.5 31q0 36 52 64l18 8l21 277l14 133h-2l-193 -430q-25 -56 -53.5 -78.5t-75.5 -22.5t-68.5 22.5t-27.5 78.5l-41 430h-2l-31 -133l-75 -277l16 -8q35 -25 35 -53q0 -24 -16.5 -39t-45.5 -15 h-159q-25 0 -38.5 12t-13.5 31z" />
<glyph unicode="&#x25fc;" horiz-adv-x="1024" d="M0 0v1024h1024v-1024h-1024z" />
<glyph unicode="&#xfb01;" horiz-adv-x="1208" d="M-315 -342q0 49 29.5 76.5t72.5 27.5q18 0 34.5 -14.5t28.5 -31.5t35 -31.5t52 -14.5q110 0 145 203l170 985h-86q-74 0 -74 64q0 41 27.5 66.5t73.5 25.5h86l10 57q37 202 170 313t346 111q155 0 240 -53t85 -131q0 -53 -34.5 -84t-83.5 -31q-21 0 -39 15t-34.5 36 t-37 42.5t-57.5 36.5t-86 15q-200 0 -240 -225l-18 -102h473q68 0 92.5 -30.5t13.5 -94.5l-108 -631q-10 -59 4 -80.5t45 -21.5q18 0 41 7t31 7q45 0 45 -49q0 -53 -64 -92t-158 -39q-212 0 -170 233l109 637h-381l-156 -895q-40 -229 -150.5 -337.5t-275.5 -108.5 q-98 0 -152 40.5t-54 98.5z" />
<glyph unicode="&#xfb02;" horiz-adv-x="1208" d="M-315 -342q0 49 29.5 76.5t72.5 27.5q18 0 34.5 -14.5t28.5 -31.5t35 -31.5t52 -14.5q52 0 90 50t55 153l170 985h-86q-74 0 -74 64q0 41 27.5 66.5t73.5 25.5h86l14 71q72 410 538 410q86 0 162.5 -15t114.5 -38q27 -15 38 -33t11 -47q0 -26 -4 -51l-184 -1053 q-10 -59 4 -80.5t45 -21.5q18 0 41 7t31 7q22 0 34.5 -13t12.5 -36q0 -53 -65 -92t-159 -39q-101 0 -146 54.5t-24 178.5l191 1092q-54 26 -154 26q-116 0 -179.5 -55t-82.5 -168l-18 -104h131q74 0 74 -66q0 -41 -27 -65.5t-76 -24.5h-129l-156 -893 q-40 -229 -150.5 -337.5t-275.5 -108.5q-98 0 -152 40.5t-54 98.5z" />
<glyph unicode="&#xfb03;" horiz-adv-x="1814" d="M-315 -342q0 49 29.5 76.5t72.5 27.5q18 0 34.5 -14.5t28.5 -31.5t35 -31.5t52 -14.5q110 0 145 203l170 985h-86q-74 0 -74 64q0 41 27.5 66.5t73.5 25.5h86l12 65q33 184 176 290t373 106q72 0 140 -14.5t100 -28.5l32 -15q121 78 301 78q154 0 239 -53t85 -131 q0 -53 -35 -84t-84 -31q-21 0 -39 15t-34.5 36t-37 42.5t-57.5 36.5t-86 15q-200 0 -240 -225l-18 -102h473q68 0 93 -30.5t14 -94.5l-109 -631q-10 -59 4 -80.5t45 -21.5q18 0 41 7t31 7q45 0 45 -49q0 -53 -63.5 -92t-157.5 -39q-212 0 -170 233l108 637h-381l-155 -895 q-40 -229 -146.5 -337.5t-263.5 -108.5q-85 0 -135.5 41t-50.5 98q0 48 27.5 76t68.5 28q19 0 35.5 -14.5t27 -32.5t29 -32.5t41.5 -14.5q42 0 77.5 51.5t53.5 153.5l170 987h-385l-154 -887q-40 -228 -152.5 -341t-275.5 -113q-98 0 -152 40.5t-54 98.5zM500 1014h385 l14 69q18 108 76 199q-8 4 -23.5 10.5t-65 17.5t-102.5 11q-108 0 -180 -57.5t-90 -165.5z" />
<glyph unicode="&#xfb04;" horiz-adv-x="1814" d="M-315 -342q0 49 29.5 76.5t72.5 27.5q18 0 34.5 -14.5t28.5 -31.5t35 -31.5t52 -14.5q110 0 145 203l170 985h-86q-74 0 -74 64q0 41 27.5 66.5t73.5 25.5h86l12 65q33 184 176 290t373 106q76 0 143 -14t96 -28l29 -14q128 76 330 76q85 0 161.5 -15.5t112.5 -37.5 q28 -15 39.5 -33t11.5 -47q0 -26 -4 -51l-184 -1053q-10 -59 4 -80.5t45 -21.5q18 0 41 7t31 7q22 0 34.5 -13t12.5 -36q0 -53 -64.5 -92t-158.5 -39q-101 0 -146 54.5t-24 178.5l190 1092q-56 26 -154 26q-116 0 -179.5 -55t-82.5 -168l-18 -104h131q74 0 74 -66 q0 -41 -27 -65.5t-76 -24.5h-129l-155 -893q-40 -229 -146.5 -337.5t-263.5 -108.5q-85 0 -135.5 41t-50.5 98q0 48 27.5 76t68.5 28q19 0 35.5 -14.5t27 -32.5t29 -32.5t41.5 -14.5q42 0 77.5 51.5t53.5 153.5l170 987h-385l-154 -887q-40 -228 -152.5 -341t-275.5 -113 q-98 0 -152 40.5t-54 98.5zM500 1014h385l14 71q19 115 72 197q-7 4 -20.5 10.5t-62 17.5t-104.5 11q-108 0 -180 -57.5t-90 -165.5z" />
</font>
</defs>
</svg>
